<?xml version="1.0" encoding="UTF-8" standalone="no"?>
<!-- Creator: ESRI ArcMap 9.0.0.535 -->

<svg
   xmlns:dc="http://purl.org/dc/elements/1.1/"
   xmlns:cc="http://creativecommons.org/ns#"
   xmlns:rdf="http://www.w3.org/1999/02/22-rdf-syntax-ns#"
   xmlns:svg="http://www.w3.org/2000/svg"
   xmlns="http://www.w3.org/2000/svg"
   xmlns:sodipodi="http://sodipodi.sourceforge.net/DTD/sodipodi-0.dtd"
   xmlns:inkscape="http://www.inkscape.org/namespaces/inkscape"
   width="500.85617"
   height="415.99377"
   viewBox="0 0 1947.6837 859.57414"
   id="svg3147"
   version="1.1"
   inkscape:version="0.48.4 r9939"
   sodipodi:docname="buses.svg">
  <metadata
     id="metadata3218">
    <rdf:RDF>
      <cc:Work
         rdf:about="">
        <dc:format>image/svg+xml</dc:format>
        <dc:type
           rdf:resource="http://purl.org/dc/dcmitype/StillImage" />
        <dc:title></dc:title>
      </cc:Work>
    </rdf:RDF>
  </metadata>
  <defs
     id="defs3216" />
  <sodipodi:namedview
     pagecolor="#ffffff"
     bordercolor="#666666"
     borderopacity="1"
     objecttolerance="10"
     gridtolerance="10"
     guidetolerance="10"
     inkscape:pageopacity="0"
     inkscape:pageshadow="2"
     inkscape:window-width="1855"
     inkscape:window-height="1056"
     id="namedview3214"
     showgrid="false"
     inkscape:zoom="1.7544124"
     inkscape:cx="123.08315"
     inkscape:cy="255.12978"
     inkscape:window-x="65"
     inkscape:window-y="24"
     inkscape:window-maximized="1"
     inkscape:current-layer="svg3147"
     fit-margin-top="0"
     fit-margin-left="0"
     fit-margin-right="0"
     fit-margin-bottom="0" />
  <path
     inkscape:connector-curvature="0"
     id="path3212"
     d="m 1844.9886,-368.857 -6.2939,6.29385 6.2939,4.10468 0,-10.39853 z m 2.1891,16.69235 -21.0707,8.48301 -14.7768,0 -27.3645,23.25988 -94.4077,29.28005 -44.3305,-18.88154 -35.5739,4.10468 -35.8476,-20.79703 -4.1046,14.50318 -25.1754,-12.58767 -10.6722,16.966 -8.483,-2.18916 -10.3985,6.29384 -22.9862,-14.77683 -21.0707,8.48299 -6.2938,-16.69235 -10.6722,-2.18917 -20.7971,12.58767 -8.483,42.14139 -46.246,12.58769 -2.1892,8.20937 -25.1754,10.67215 -42.1414,-4.3783 -33.3847,23.25984 -2.1891,12.5877 -14.7769,8.48298 -14.7768,8.20937 -25.1754,25.44901 -1.9155,27.0909 -10.6722,14.77684 2.1892,6.29384 -12.5877,33.658383 -33.6584,18.88153 -4.1047,16.96601 -14.7768,-8.48301 6.2938,8.48301 -16.966,12.58768 2.1892,8.20936 -4.1047,19.15518 -23.2599,-2.18917 -1.9155,10.3985302 -14.7768,2.18916 8.2093,16.6923698 -10.3985,14.77685 -31.4692,14.77684 -14.7769,-6.29384 -8.483,4.10468 -14.5032,35.84754 -48.43529,21.07069 -42.14139,-2.18916 -4.10468,-6.29384 -6.29385,6.29384 -22.9862,-2.18916 -10.67217,14.776837 -10.39851,6.29385 -4.37833,-6.29385 -6.29384,6.29385 -6.29385,6.29384 -6.29385,10.67217 -12.58767,-2.18916 -21.0707,16.69236 -14.50319,2.18917 -8.48301,-8.48301 -12.58769,16.96602 -27.36453,-2.18916 -25.17539,-2.18917 -29.55369,4.37833 -16.69235,-12.5877 -10.67218,4.10469 -10.39853,4.10468 -12.58767,-14.50321 -14.77686,4.10468 -10.39853,-4.10468 -6.29384,4.10468 -6.29382,-8.483 -6.29385,23.25986 -18.88154,6.29382 -18.88152,-4.3783 -4.37833,-8.20937 -4.10468,22.9862 -12.5877,8.48301 -29.55369,0 -14.77683,-10.67217 -16.69238,29.55369 -10.39853,-2.18914 -4.37833,-12.58769 -14.77683,4.37833 -29.28004,25.17536 -31.46924,-12.5877 -12.58767,10.39853 -6.29385,-8.48301 -58.83376,23.25987 -19.15516,-37.76305 -4.10468,8.20936 -12.5877,-4.10468 -33.65837,-25.17539 0,-12.58767 -10.39851,-2.18916 -25.17538,6.29384 -2.18916,8.48299 -16.96601,-2.18917 -29.28005,21.07071 0,10.39853 -23.25986,0 -8.20936,14.77683 -21.07069,8.48302 -6.29384,-6.29385 -29.553691,16.69237 -18.881528,-6.29384 -31.469215,10.67215 -14.776849,29.28006 8.483004,23.25985 10.398524,-2.18917 27.364536,12.5877 18.881528,18.88151 4.378326,21.07071 31.469205,27.36453 4.10468,29.28004 18.88153,8.48301 23.25985,31.46921 -4.10468,12.5877 10.39853,25.17536 14.77684,2.18916 6.29385,2.18917 -2.18916,10.39853 23.25985,12.58767 4.10468,33.6584 -10.39852,16.966 1.91551,12.58769 -8.483,1.91552 8.483,6.29384 4.37833,19.15517 -6.29384,6.29384 6.29384,4.10469 10.39852,25.17536 -4.10468,27.36453 10.39852,14.77686 8.48302,1.91551 4.10468,21.07068 10.3985,8.48301 8.48301,27.36453 16.96603,2.18917 12.58767,14.50321 10.39853,48.43527 67.31675,115.4783 12.58769,0 -2.18917,10.6721 14.77686,0 4.10469,14.7769 8.48298,-2.1892 -2.18916,12.5877 42.14138,29.2801 8.48302,14.7768 8.20936,50.62443 -10.39853,31.4692 16.96603,8.2094 16.69235,-1.9155 14.77685,16.6923 -2.18916,-12.5877 16.69235,12.5877 4.37833,35.8476 10.39853,12.5876 -8.20936,48.4353 14.50321,18.8815 25.17536,12.5877 27.36453,4.1047 18.88154,-18.8815 8.48301,2.1891 16.966,-12.5877 12.58769,8.2094 16.69235,-4.1047 14.77686,10.3985 10.39853,-14.5032 12.5877,1.9155 21.07068,-27.3645 65.12758,-22.9862 98.78599,-8.483 23.25984,16.966 16.69235,-21.0707 -6.29382,-10.6722 2.18917,-14.5032 18.88151,-2.1891 6.29385,-18.8815 12.58769,0 12.58767,-25.1754 12.58769,0 4.10469,-12.5877 16.96599,-10.6722 10.39867,-25.1753 25.1753,-4.1047 6.2939,-29.55373 21.0707,-16.6924 23.2598,-33.6584 18.8816,-6.2938 2.1891,-25.1754 27.0909,-16.966 6.2939,-21.0707 16.966,0 0,-14.5032 8.483,-6.2938 12.5877,4.1046 18.8815,-23.2598 -21.0707,-16.6924 8.483,-22.9862 10.3985,0 4.1047,-10.6722 -10.3985,-14.77678 8.483,-18.88154 -4.3784,-21.07068 10.6722,-12.58769 6.2939,-14.50321 -8.483,-16.966 37.763,-52.53992 4.3783,-25.17536 56.6446,-100.97513 0,-33.65837 56.6446,-58.83376 4.3783,-37.76306 -8.483,-27.36453 -8.483,-25.17539 -6.2938,-48.4352 12.5877,-10.39853 10.6721,-48.43523 31.4693,-18.88151 22.9862,-25.17537 6.5675,-2.18916 10.3985,-12.5877 22.9862,4.37833 31.7428,-27.36454 25.1754,-21.07069 12.5877,-21.070687 35.5739,-29.28005 18.8815,-29.5537 48.4353,-18.8815298 6.2938,-33.6583702 2.1891,-8.48301 22.9863,-39.67857 27.3645,-10.67217 -2.1892,-4.10468 16.9661,1.91552 4.1046,-8.20936 33.6584,-12.587693 -18.8815,16.692373 35.8475,-18.881533 22.9862,-27.36453 21.0707,-2.18916 10.3985,-14.50321 39.9523,-18.88151 31.4692,6.29382 10.6722,-29.5537 10.3985,-8.48298 21.0707,8.48298 -8.4831,-12.58766 4.3784,-27.36456 18.8815,-16.69235 0,-18.88154 -12.5877,-6.29385 1.9155,-16.966 -10.3985,-12.58769 -12.5877,-2.18917 -2.1891,-14.50318 6.2938,-4.37834 -60.7493,-21.07071 z"
     style="fill:none;stroke:#000000;stroke-width:20.40299606;stroke-linejoin:round"
     inkscape:export-filename="/home/icoloma/code/wedding/img/tenerife.png"
     inkscape:export-xdpi="89.849998"
     inkscape:export-ydpi="89.849998" />
  <path
     style="color:#000000;fill:#ffffd5;fill-opacity:1;fill-rule:nonzero;stroke:none;stroke-width:0.99999994;marker:none;visibility:visible;display:inline;overflow:visible;enable-background:accumulate"
     d="m 565.58316,1214.6574 c -19.86499,-3.9301 -37.30717,-16.9918 -37.45208,-28.0461 -0.0389,-2.9758 1.43991,-14.0479 3.28644,-24.6047 l 3.3574,-19.1939 -5.53014,-8.3567 c -3.66775,-5.5423 -6.27473,-13.6558 -7.74109,-24.0917 -3.02238,-21.5102 -3.14965,-21.7839 -13.51506,-29.0689 -12.28034,-8.6308 -28.52868,-14.4883 -35.4035,-12.7628 -3.02879,0.7601 -7.30428,0.8122 -9.50106,0.1146 -3.86873,-1.2279 -3.86269,-1.6499 0.19203,-13.4346 4.16376,-12.1023 4.16171,-12.3179 -0.38115,-40.4823 -5.92833,-36.75393 -9.26182,-42.53843 -34.6263,-60.08643 -17.75757,-12.2851 -19.25795,-13.8887 -19.25795,-20.5814 0,-5.5525 -1.21544,-7.812 -5.17204,-9.6148 -2.84464,-1.296 -6.23251,-4.684 -7.52862,-7.5285 -1.29608,-2.8446 -3.78306,-5.1721 -5.52664,-5.1721 -1.74356,0 -4.70442,-2.1913 -6.57971,-4.8696 -1.87528,-2.6784 -6.55668,-5.9202 -10.40308,-7.2043 -5.95925,-1.9895 -9.79551,-7.1104 -25.94119,-34.6286 -43.77359,-74.6064 -42.94857,-72.9262 -48.55117,-98.8795 -4.37341,-20.25922 -6.42259,-25.59893 -12.81996,-33.40606 -4.20942,-5.13704 -10.21344,-9.85995 -13.42638,-10.56153 -3.19654,-0.69771 -6.81603,-1.56224 -8.04326,-1.92061 -1.22726,-0.35855 -3.95936,-6.13334 -6.07135,-12.83344 -2.43547,-7.72611 -5.77527,-13.44984 -9.13112,-15.64869 -2.91014,-1.90683 -5.29659,-5.05919 -5.30324,-7.00544 -0.007,-1.94625 -1.04669,-7.26461 -2.31124,-11.81855 -1.71738,-6.18462 -3.8826,-8.83184 -8.55664,-10.46121 -7.82184,-2.72669 -9.37085,-7.48493 -7.54843,-23.18708 1.18778,-10.23389 0.51322,-14.84311 -3.85768,-26.35864 -5.10866,-13.45924 -10.18687,-39.08974 -10.17013,-51.33008 0.004,-3.25137 2.06737,-9.28961 4.58426,-13.41828 4.01221,-6.58157 4.40167,-9.51556 3.16028,-23.80714 -2.10993,-24.29066 -4.19764,-29.02909 -15.41077,-34.97763 -6.73303,-3.57183 -9.65614,-6.4963 -9.65614,-9.66044 0,-6.203 -6.56202,-11.63382 -15.88511,-13.14673 -6.36396,-1.03278 -8.18247,-2.52555 -10.07973,-8.2743 -1.27319,-3.85775 -1.72075,-10.79709 -0.99457,-15.42059 1.22579,-7.80469 0.33711,-9.72343 -12.41306,-26.80292 -9.14008,-12.24338 -16.38757,-19.64674 -21.66907,-22.13493 -7.08749,-3.33903 -8.08578,-4.8427 -9.33971,-14.06788 -2.21057,-16.26297 -2.50387,-16.74664 -19.23619,-31.722 -13.535103,-12.11392 -16.069224,-15.50525 -17.289834,-23.13856 -2.186163,-13.67149 -20.360614,-31.66102 -40.73016,-40.31579 -8.671396,-3.68434 -17.470551,-7.25339 -19.553675,-7.93119 -5.049062,-1.64284 -4.776365,-7.87419 0.851527,-19.45807 4.179844,-8.60338 5.873757,-9.92235 17.113258,-13.32542 10.05923,-3.04569 13.832685,-3.30332 19.491074,-1.33079 10.363887,3.61286 13.734088,3.09672 25.647963,-3.92797 8.205657,-4.83821 12.537417,-6.09376 17.978087,-5.21086 9.28867,1.50734 30.26758,-7.5632 35.31722,-15.2699 2.73355,-4.17194 5.51681,-5.60948 10.86066,-5.60948 11.69679,0 18.23536,-3.52231 19.64773,-10.58415 0.85269,-4.26361 4.54303,-8.68671 11.31554,-13.5625 8.22685,-5.92285 11.66038,-7.10691 18.92608,-6.52675 8.35187,0.66686 14.15965,-2.16647 16.36117,-7.98189 0.40391,-1.06684 3.72541,-2.58426 7.38121,-3.37202 5.67115,-1.22206 7.00522,-0.64592 9.08777,3.92481 3.80946,8.36087 38.66727,33.59687 48.60041,35.18526 7.45816,1.19259 9.01245,2.57645 13.93876,12.41012 7.13061,14.23375 11.11403,18.64283 16.84303,18.64283 2.54549,0 15.57437,-4.39993 28.95307,-9.77762 18.95998,-7.62112 25.23268,-9.29181 28.44055,-7.57499 6.10578,3.2677 13.27488,2.67663 17.85955,-1.47247 3.82402,-3.46067 4.65472,-3.44146 14.23829,0.32934 20.13249,7.92133 23.56688,7.31873 40.44007,-7.0957 l 15.11277,-12.91048 4.9132,5.30146 c 4.11503,4.44017 6.58236,5.19433 15.18727,4.64206 9.63879,-0.61865 10.67548,-1.29341 16.76687,-10.91344 4.64176,-7.3306 7.41842,-9.82256 9.7393,-8.74064 1.78554,0.83236 11.31549,1.86697 21.17768,2.29915 16.25788,0.71242 18.84368,0.251 27.70821,-4.94393 5.3773,-3.15133 10.67013,-8.07892 11.76178,-10.95023 1.78567,-4.69662 2.91457,-5.09909 11.24895,-4.01023 15.52882,2.02875 36.31766,-7.56522 36.31766,-16.76052 0,-2.49873 1.61993,-4.05098 4.32857,-4.14772 21.94916,-0.78393 24.05897,-0.41393 29.97727,5.25612 6.73291,6.45052 11.76921,7.06814 22.12608,2.71343 6.65516,-2.79829 7.72726,-2.62467 15.48183,2.50702 7.95318,5.2632 9.06992,5.41992 24.59438,3.45161 10.38414,-1.31659 26.50728,-1.29992 44.60281,0.046 l 28.33991,2.10805 4.55135,-5.25851 c 3.28982,-3.80101 6.29576,-5.05956 10.84495,-4.54072 10.74339,1.22533 19.89307,-1.61332 29.94899,-9.29155 6.8049,-5.19596 11.80555,-7.32579 16.86271,-7.18199 5.68813,0.16172 8.57656,-1.40585 13.83473,-7.50823 3.99393,-4.63516 9.49883,-8.30414 13.79614,-9.1951 4.00985,-0.83134 11.13933,-5.35254 16.23214,-10.29371 10.26303,-9.95742 9.96395,-9.92093 56.72601,-6.92132 l 23.83722,1.52907 25.94138,-11.24974 c 14.26778,-6.187367 26.98898,-12.398477 28.26938,-13.802487 1.2803,-1.404 5.0967,-9.37023 8.4807,-17.70273 3.3841,-8.3325 6.3844,-15.46447 6.6673,-15.84885 0.283,-0.3843 4.2581,0.3366 8.8336,1.60218 7.6358,2.11202 9.8299,1.58144 26.7154,-6.46046 20.3995,-9.71542 30.8227,-20.8116 31.2555,-33.27334 0.3188,-9.1722198 7.9574,-17.3070998 14.6699,-15.62236978 12.3764,3.10628998 17.844,-3.10963002 20.7782,-23.62194022 1.5565,-10.8814 2.649,-11.96303 18.1279,-17.94571 4.3034,-1.66332 6.2155,-4.28315 7.2843,-9.98067 1.272,-6.78047 3.3379,-8.82073 16.89,-16.68076 8.4924,-4.92545 16.4146,-10.50269 17.6049,-12.39387 4.2352,-6.72856 14.0679,-33.750253 14.0679,-38.660543 0,-2.74588 2,-7.69754 4.4443,-11.00371 2.761,-3.73459 4.9087,-10.87357 5.6707,-18.84986 1.1298,-11.82748 2.1008,-13.74525 12.3289,-24.34991 6.1064,-6.33118 17.1953,-14.94007 24.6421,-19.13089 13.6691,-7.69259 20.0069,-14.08393 20.0069,-20.17621 0,-1.82772 6.1385,-7.48585 13.6412,-12.57364 l 13.6411,-9.25047 19.9171,2.25623 c 19.081,2.16153 20.4843,2.02288 33.432,-3.30367 7.4332,-3.05798 15.6278,-7.90083 18.2103,-10.76194 3.1795,-3.52253 11.215,-7.02291 24.8893,-10.84201 11.1067,-3.10201 21.5188,-6.93336 23.138,-8.51413 1.6194,-1.58073 4.7003,-11.46877 6.8469,-21.97337 2.8554,-13.97399 5.1788,-20.13265 8.6581,-22.95003 6.5738,-5.32311 7.8911,-4.92599 11.9362,3.59824 4.1776,8.80376 9.39,10.19105 21.805,5.80344 8.3063,-2.93556 9.3984,-2.84172 16.2563,1.39662 12.3566,7.63682 18.056,9.12656 23.7904,6.21843 2.8357,-1.43818 8.0777,-2.81745 11.6487,-3.06507 4.0105,-0.27806 8.2478,-2.6125 11.0828,-6.10571 4.0999,-5.05161 5.1343,-5.36414 9.6884,-2.92689 10.2949,5.50968 18.6937,6.15496 23.3727,1.79576 4.2912,-3.99785 4.5675,-3.95156 15.744,2.63832 11.8883,7.00961 16.9351,7.70557 38.0814,5.25126 11.5353,-1.33879 14.1873,-0.7451 32.8713,7.35858 11.1781,4.84818 22.7069,8.81487 25.6197,8.81487 6.5886,0 95.0825,-27.44084 101.3262,-31.41995 2.5109,-1.60013 9.1442,-6.87238 14.7406,-11.7161 7.114,-6.15714 12.1647,-8.80679 16.7873,-8.80679 3.6365,0 11.1252,-1.5521 16.6416,-3.44916 9.9063,-3.40667 10.2826,-3.36007 30.5752,3.78752 15.8769,5.59216 20.6912,8.22026 21.1861,11.5652 2.2323,15.08624 6.1246,20.56072 14.6183,20.56072 5.9683,0 10.5327,6.82906 8.6112,12.8834 -2.0636,6.50172 0.9521,14.46846 6.6253,17.5049 7.3961,3.95825 6.5951,7.33601 -4.2221,17.80347 -8.3439,8.07402 -9.6472,10.63934 -10.9772,21.60645 -1.1738,9.67853 -2.3272,12.44463 -5.189,12.44463 -7.5251,0 -19.505,12.70075 -23.282,24.68299 l -3.6307,11.51782 -7.8141,-1.81664 c -14.7433,-3.42753 -21.727,-2.05201 -44.1966,8.70507 -15.2024,7.27798 -23.1343,12.38245 -25.1795,16.20412 -2.3413,4.37475 -5.1865,5.87109 -13.1794,6.93139 -12.3165,1.63382 -11.3038,0.93563 -25.5845,17.64131 -9.679,11.32274 -12.6825,13.52678 -18.4323,13.52678 -7.1104,0 -38.9632,11.33227 -44.2983,15.76002 -1.6658,1.38249 -6.3431,2.62871 -10.394,2.76938 -4.0509,0.14067 -8.5607,1.84094 -10.0217,3.778363 -1.461,1.93743 -6.5521,5.11222 -11.3135,7.0551 -12.4011,5.06018 -15.1348,8.08846 -28.3152,31.36701 -8.9031,15.72414 -12.5953,24.97644 -15.016,37.62818 -1.7655,9.22736 -3.6714,17.5236202 -4.2354,18.4361202 -0.5639,0.91255 -10.9352,5.37628 -23.0472,9.91951 l -22.0219,8.2603798 -9.994,15.59874 c -6.8845,10.74527 -15.6035,20.26772 -28.0226,30.60445 -10.0581,8.37176 -21.0436,19.83206 -24.8488,25.92269 -3.7512,6.00433 -13.6379,16.590167 -21.9704,23.524077 -8.3324,6.93392 -19.3619,16.403 -24.51,21.04241 -9.2167,8.30613 -9.5523,8.41296 -21.9201,6.97752 -14.1574,-1.64315 -8.4315,-5.42439 -46.6341,30.79601 -8.3325,7.90016 -21.4806,18.32223 -29.2178,23.16017 l -14.0679,8.79626 -5.4739,24.35079 c -4.2469,18.89237 -6.5476,25.10281 -10.2637,27.70564 -2.6343,1.84516 -5.7687,5.18423 -6.9654,7.42015 -3.6627,6.844 3.5912,51.92378 13.1406,81.66215 8.2373,25.65241 8.4219,26.89648 6.2603,42.20357 l -2.2272,15.77194 -18.9983,19.4786 c -38.2126,39.17869 -37.1546,37.56711 -37.1546,56.59108 l 0,16.64848 -28.1888,50.3827 c -21.4457,38.33042 -28.7399,53.36378 -30.4926,62.84429 -1.9261,10.41955 -5.3399,16.68883 -20.8319,38.25658 -19.4381,27.06159 -20.9748,31.41223 -15.5916,44.1431 2.7038,6.39435 2.5496,7.49712 -1.8165,12.98575 -10.0017,12.57314 -11.4971,17.07203 -9.1522,27.53539 1.741,7.76861 1.4755,11.5376 -1.3017,18.47857 -3.3118,8.27716 -3.292,16.31517 0.061,24.08703 1.0337,2.397 0.232,3.8373 -2.5381,4.5618 -2.594,0.6783 -5.7485,5.7206 -8.7795,14.0334 -6.5368,17.9278 -6.1352,22.7523 2.5264,30.3574 6.1057,5.3608 6.8406,6.9418 4.6311,9.9634 -1.5959,2.1826 -5.6516,3.5916 -10.3376,3.5916 -8.9414,0 -21.0293,8.8191 -21.0293,15.3424 0,2.5207 -1.5025,4.1362 -3.847,4.1362 -6.7869,0 -12.7824,6.0558 -15.4585,15.6142 -2.2273,7.9549 -4.4754,10.4713 -15.4808,17.328 -13.5062,8.4147 -17.1565,14.0625 -17.1565,26.5445 0,6.23 -0.8795,7.4554 -6.1887,8.6215 -7.2783,1.5986 -13.757,8.181 -25.8129,26.226 -4.8408,7.2454 -11.1557,14.7161 -14.0332,16.6015 -8.7052,5.7039 -18.893,16.8646 -18.9059,20.7111 -0.01,1.9916 -0.9929,7.1507 -2.1908,11.4648 -1.9462,7.00683 -3.1284,7.99553 -11.0803,9.26713 -13.1222,2.0982 -15.49613,4.0445 -20.26336,16.6124 -3.20744,8.4559 -6.70633,13.0985 -13.5092,17.9252 -5.04938,3.5825 -9.71967,8.2119 -10.37848,10.2875 -0.65879,2.0756 -4.1298,4.4178 -7.7134,5.2049 -5.17955,1.1377 -7.6928,3.8313 -12.25633,13.1362 -4.13452,8.4301 -6.97698,11.7143 -10.15948,11.7382 -6.488,0.051 -9.28273,2.4582 -12.90445,11.1262 -2.71442,6.4965 -4.82008,8.1585 -12.92189,10.1985 -5.97974,1.5058 -10.07686,3.8871 -10.71996,6.2308 -2.86122,10.4273 -3.47033,20.0406 -1.58418,25.0016 3.5066,9.2231 -1.79649,11.1247 -11.59046,4.1562 -9.57847,-6.8152 -8.50473,-6.7918 -70.4871,-1.5333 -38.3024,3.2495 -44.40424,4.3451 -66.01071,11.8524 -46.89569,16.2942 -46.8448,16.2682 -56.93961,29.2014 -8.05768,10.3232 -10.32739,11.9474 -16.69705,11.9474 -5.17222,0 -8.06735,1.2997 -9.70304,4.356 -1.94807,3.64 -3.0801,3.9553 -6.88591,1.9185 -2.50503,-1.3406 -8.65642,-1.9752 -13.66973,-1.4101 -5.41141,0.6098 -11.21867,-0.139 -14.29201,-1.8418 -7.82801,-4.3386 -14.83105,-3.6013 -22.6836,2.3881 -3.90159,2.9758 -9.88288,5.4107 -13.29182,5.4107 -4.37925,0 -8.67864,2.5403 -14.6515,8.6571 -4.64941,4.7614 -8.98626,8.5505 -9.63745,8.42 -0.65122,-0.1308 -5.23185,-1.038 -10.17928,-2.0168 l 0,0 z"
     id="path4278"
     inkscape:connector-curvature="0"
     inkscape:export-filename="/home/icoloma/code/wedding/img/tenerife.png"
     inkscape:export-xdpi="89.849998"
     inkscape:export-ydpi="89.849998" />
  <path
     style="fill:#696969;stroke:#ffffff;stroke-width:4.08617066999999956;stroke-miterlimit:4;stroke-opacity:1;stroke-dasharray:none;fill-opacity:1"
     d="m 769.16316,1068.5669 c -0.1817,-0.338 -0.3271,-1.017 -0.3229,-1.5089 0.01,-0.492 2.1312,-12.1164 4.7265,-25.8319 2.5952,-13.7156 4.6357,-24.9747 4.5344,-25.0203 -0.1011,-0.045 -2.6235,1.0011 -5.605,2.3259 -19.9749,8.8761 -32.7303,13.3317 -44.2379,15.4527 -4.9348,0.9095 -12.0992,0.9829 -14.8148,0.1516 -2.2876,-0.7002 -4.068,-1.7826 -4.9438,-3.0056 -1.1681,-1.6312 -13.1491,-28.7655 -13.1491,-29.7799 0,-1.93465 1.5943,-3.17315 4.5251,-3.51505 2.9527,-0.3444 3.7913,0.088 12.116,6.24975 8.163,6.042 10.1739,7.2794 11.8291,7.2794 0.6537,0 18.2577,-7.6467 49.3908,-21.45395 26.6063,-11.7996 49.441,-21.8749 50.7438,-22.3895 10.7315,-4.2388 22.2584,-3.675 30.0542,1.4702 1.9754,1.3038 4.2793,3.9579 4.2793,4.9299 0,0.9437 -2.6174,3.5251 -5.7017,5.6233 -5.7275,3.8962 -19.2452,11.0517 -34.8732,18.4597 l -7.5079,3.55885 -11.0031,23.7229 c -6.0517,13.0476 -12.1279,26.0715 -13.5027,28.942 -2.6459,5.5247 -4.9839,8.9958 -7.3669,10.9375 -1.3544,1.1034 -7.4301,4.0157 -8.3779,4.0157 -0.2538,0 -0.6103,-0.2765 -0.7923,-0.6144 z m -27.3387,-83.20485 c -5.6292,-3.4326 -10.9776,-6.7002 -11.8853,-7.2611 -1.8059,-1.1162 -2.7568,-2.2785 -2.4706,-3.0201 0.202,-0.5232 6.0646,-3.2283 7.7657,-3.5832 1.6769,-0.3498 7.0828,-0.2461 8.8402,0.1695 1.4528,0.3436 31.8421,9.5134 32.025,9.6633 0.1718,0.1408 -23.1609,10.3363 -23.5851,10.3057 -0.2501,-0.018 -5.0607,-2.8415 -10.6899,-6.2741 z"
     id="path3382"
     inkscape:connector-curvature="0"
     sodipodi:nodetypes="ccscsssssssssssssscsssscscsssccs"
     inkscape:export-filename="/home/icoloma/code/wedding/img/tenerife.png"
     inkscape:export-xdpi="89.849998"
     inkscape:export-ydpi="89.849998" />
  <path
     style="fill:#696969;stroke:#ffffff;stroke-width:4.08617066999999956;stroke-miterlimit:4;stroke-opacity:1;stroke-dasharray:none;fill-opacity:1"
     d="m 1398.6262,-118.74067 c -0.1818,-0.33793 -0.3272,-1.01694 -0.3229,-1.50894 0.01,-0.49198 2.1312,-12.11632 4.7264,-25.83189 2.5953,-13.71558 4.6358,-24.97469 4.5345,-25.02027 -0.1011,-0.0455 -2.6236,1.00108 -5.605,2.32592 -19.975,8.87611 -32.7304,13.3317 -44.238,15.45267 -4.9348,0.90956 -12.0992,0.98293 -14.8148,0.15158 -2.2876,-0.70016 -4.068,-1.7826 -4.9438,-3.00557 -1.1681,-1.63118 -13.1491,-28.76554 -13.1491,-29.7799 0,-1.93475 1.5943,-3.17325 4.5251,-3.51509 2.9528,-0.3444 3.7913,0.0883 12.116,6.24979 8.163,6.04195 10.1739,7.2794 11.8292,7.2794 0.6536,0 18.2576,-7.64667 49.3908,-21.45395 26.6063,-11.79969 49.441,-21.87498 50.7437,-22.38954 10.7316,-4.23884 22.2584,-3.67497 30.0542,1.47019 1.9755,1.30381 4.2793,3.95792 4.2793,4.92991 0,0.94365 -2.6173,3.52505 -5.7016,5.62324 -5.7275,3.89629 -19.2452,11.05178 -34.8732,18.45974 l -7.5079,3.5589 -11.0031,23.72293 c -6.0517,13.04762 -12.1279,26.07152 -13.5027,28.94201 -2.6459,5.52465 -4.9839,8.99574 -7.367,10.93742 -1.3543,1.10348 -7.4301,4.01579 -8.3779,4.01579 -0.2537,0 -0.6103,-0.27654 -0.7922,-0.61447 z m -27.3388,-83.20492 c -5.6292,-3.43263 -10.9776,-6.70015 -11.8853,-7.26111 -1.8059,-1.11616 -2.7568,-2.27851 -2.4706,-3.0201 0.202,-0.52321 6.0646,-3.2283 7.7657,-3.58315 1.6769,-0.34983 7.0828,-0.24615 8.8402,0.16944 1.4528,0.34363 31.8422,9.5134 32.0251,9.66335 0.1718,0.1408 -23.161,10.33632 -23.5852,10.30567 -0.2501,-0.0184 -5.0606,-2.84144 -10.6899,-6.27407 z"
     id="path3382-5"
     inkscape:connector-curvature="0"
     sodipodi:nodetypes="ccscsssssssssssssscsssscscsssccs"
     inkscape:export-filename="/home/icoloma/code/wedding/img/tenerife.png"
     inkscape:export-xdpi="89.849998"
     inkscape:export-ydpi="89.849998" />
  <path
     transform="matrix(4.4692496,0,0,4.4692496,421.27128,338.2007)"
     style="color:#000000;fill:none;stroke:#696969;stroke-width:3.19999981000000000;stroke-linecap:butt;stroke-linejoin:bevel;stroke-miterlimit:4;stroke-dashoffset:0;stroke-opacity:1;marker:none;visibility:visible;display:inline;overflow:visible;enable-background:accumulate"
     d="m 98.94068,169.70338 c 0,2.10618 -1.707388,3.81356 -3.813559,3.81356 -2.106171,0 -3.813559,-1.70738 -3.813559,-3.81356 0,-2.10617 1.707388,-3.81355 3.813559,-3.81355 2.106171,0 3.813559,1.70738 3.813559,3.81355 z"
     id="path4172"
     inkscape:export-filename="/home/icoloma/code/wedding/img/tenerife.png"
     inkscape:export-xdpi="89.849998"
     inkscape:export-ydpi="89.849998" />
  <path
     transform="matrix(4.4692496,0,0,4.4692496,659.07209,-681.44827)"
     style="color:#000000;fill:none;stroke:#696969;stroke-width:3.19999981000000000;stroke-linecap:butt;stroke-linejoin:bevel;stroke-miterlimit:4;stroke-dashoffset:0;stroke-opacity:1;marker:none;visibility:visible;display:inline;overflow:visible;enable-background:accumulate"
     d="m 98.94068,169.70338 c 0,2.10618 -1.707388,3.81356 -3.813559,3.81356 -2.106171,0 -3.813559,-1.70738 -3.813559,-3.81356 0,-2.10617 1.707388,-3.81355 3.813559,-3.81355 2.106171,0 3.813559,1.70738 3.813559,3.81355 z"
     id="path4172-6-8"
     inkscape:export-filename="/home/icoloma/code/wedding/img/tenerife.png"
     inkscape:export-xdpi="89.849998"
     inkscape:export-ydpi="89.849998" />
  <g
     style="font-size:68.47776794px;font-style:normal;font-variant:normal;font-weight:normal;font-stretch:normal;line-height:125%;letter-spacing:0px;word-spacing:0px;fill:#000000;fill-opacity:1;stroke:none;font-family:Minion LT;-inkscape-font-specification:Minion LT"
     id="text4516">
    <path
       d="m 630.84725,-53.440904 c -3e-5,4.948618 -1.69414,8.760365 -5.08233,11.435252 -3.36596,2.652643 -8.19195,3.978952 -14.47797,3.978933 l -5.75106,0 0,19.225936 -5.68419,0 0,-48.884032 12.6724,0 c 12.2154,4.9e-5 18.32312,4.748015 18.32315,14.243911 m -25.31136,10.532469 5.11577,0 c 5.03773,2.4e-5 8.6823,-0.813594 10.93371,-2.440858 2.25135,-1.62721 3.37704,-4.235248 3.37708,-7.82412 -4e-5,-3.232148 -1.05886,-5.639568 -3.17646,-7.222264 -2.11767,-1.582614 -5.41673,-2.373942 -9.89718,-2.373985 l -6.35292,0 0,19.861227"
       style="text-align:end;text-anchor:end;font-family:Open Sans;-inkscape-font-specification:Open Sans"
       id="path4653" />
    <path
       d="m 645.42553,-55.447089 0,23.773288 c -10e-6,2.986996 0.67986,5.216088 2.03962,6.687282 1.35973,1.471207 3.48851,2.206807 6.38635,2.206803 3.83402,4e-6 6.63153,-1.047669 8.39254,-3.143023 1.78325,-2.095339 2.67488,-5.516995 2.67491,-10.264977 l 0,-19.259373 5.55045,0 0,36.646306 -4.58079,0 -0.80247,-4.915152 -0.30093,0 c -1.13687,1.805569 -2.71952,3.187606 -4.74797,4.146114 -2.00621,0.958511 -4.30217,1.437765 -6.8879,1.437766 -4.4582,-10e-7 -7.80184,-1.058819 -10.03092,-3.176459 -2.20681,-2.117635 -3.31021,-5.505854 -3.31021,-10.164669 l 0,-23.973906 5.61732,0"
       style="text-align:end;text-anchor:end;font-family:Open Sans;-inkscape-font-specification:Open Sans"
       id="path4655" />
    <path
       d="m 697.68664,-18.132055 c -5.41672,-10e-7 -9.69657,-1.649529 -12.83958,-4.948589 -3.12074,-3.299051 -4.68111,-7.879835 -4.6811,-13.742364 -1e-5,-5.907075 1.4489,-10.599314 4.34673,-14.076729 2.9201,-3.477351 6.83216,-5.216043 11.73618,-5.21608 4.59191,3.7e-5 8.22533,1.51582 10.90027,4.547352 2.67488,3.009307 4.01234,6.988235 4.01237,11.936798 l 0,3.510823 -25.24449,0 c 0.11145,4.302165 1.19256,7.567784 3.24333,9.796869 2.07305,2.229099 4.98201,3.343645 8.72691,3.343641 3.94547,4e-6 7.84638,-0.82476 11.70274,-2.474295 l 0,4.948589 c -1.96163,0.847057 -3.82293,1.448911 -5.58388,1.805566 -1.73872,0.378946 -3.84521,0.568418 -6.31948,0.568419 M 696.182,-51.468156 c -2.94242,3.3e-5 -5.29411,0.958542 -7.05508,2.875531 -1.73871,1.917049 -2.76409,4.569668 -3.07615,7.957866 l 19.15906,0 c -3e-5,-3.499652 -0.78021,-6.174562 -2.34055,-8.024738 -1.56039,-1.872408 -3.78948,-2.808626 -6.68728,-2.808659"
       style="text-align:end;text-anchor:end;font-family:Open Sans;-inkscape-font-specification:Open Sans"
       id="path4657" />
    <path
       d="m 737.30878,-56.115817 c 1.62721,3.7e-5 3.08727,0.133783 4.38017,0.401237 l -0.76904,5.149207 c -1.51581,-0.334332 -2.85326,-0.501514 -4.01237,-0.501546 -2.96471,3.2e-5 -5.50588,1.203742 -7.6235,3.611132 -2.09536,2.407448 -3.14303,5.405577 -3.14302,8.994395 l 0,19.660609 -5.55045,0 0,-36.646306 4.58079,0 0.63529,6.787592 0.2675,0 c 1.35973,-2.385099 2.99811,-4.224099 4.91515,-5.517008 1.917,-1.292838 4.02349,-1.939275 6.31948,-1.939312"
       style="text-align:end;text-anchor:end;font-family:Open Sans;-inkscape-font-specification:Open Sans"
       id="path4659" />
    <path
       d="m 760.3799,-22.712843 c 0.98078,4e-6 1.92815,-0.06687 2.84209,-0.200619 0.91391,-0.156032 1.63837,-0.312068 2.17337,-0.468109 l 0,4.246424 c -0.60188,0.289782 -1.49351,0.523837 -2.67491,0.702164 -1.15915,0.200618 -2.20682,0.300927 -3.14303,0.300928 -7.08852,-10e-7 -10.63278,-3.733729 -10.63277,-11.201197 l 0,-21.80054 -5.24952,0 0,-2.674913 5.24952,-2.307112 2.34054,-7.82412 3.2099,0 0,8.492848 10.63278,0 0,4.313297 -10.63278,0 0,21.566485 c -10e-6,2.206811 0.52383,3.900921 1.57151,5.082334 1.04766,1.181424 2.48543,1.772134 4.3133,1.77213"
       style="text-align:end;text-anchor:end;font-family:Open Sans;-inkscape-font-specification:Open Sans"
       id="path4661" />
    <path
       d="m 804.38222,-37.157372 c -4e-5,5.973984 -1.50468,10.643931 -4.51392,14.009856 -3.00931,3.343642 -7.16656,5.01546 -12.47178,5.015461 -3.27679,-10e-7 -6.18575,-0.769037 -8.7269,-2.307112 -2.54118,-1.538072 -4.50278,-3.744873 -5.88481,-6.620409 -1.38205,-2.875521 -2.07306,-6.241449 -2.07306,-10.097796 0,-5.973948 1.49349,-10.621604 4.48048,-13.942983 2.98697,-3.343606 7.13308,-5.015425 12.43834,-5.015462 5.12689,3.7e-5 9.19499,1.705293 12.20429,5.115771 3.03154,3.410543 4.54732,8.024762 4.54736,13.842674 m -27.91941,0 c -10e-6,4.681111 0.93621,8.247658 2.80866,10.699651 1.87243,2.452009 4.62535,3.678009 8.25879,3.678005 3.6334,4e-6 6.38633,-1.214851 8.2588,-3.644569 1.8947,-2.451993 2.84206,-6.029685 2.84209,-10.733087 -3e-5,-4.658784 -0.94739,-8.191894 -2.84209,-10.599342 -1.87247,-2.429681 -4.64769,-3.644536 -8.32567,-3.644569 -3.63344,3.3e-5 -6.37522,1.192597 -8.22536,3.577696 -1.85015,2.385157 -2.77523,5.940558 -2.77522,10.666215"
       style="text-align:end;text-anchor:end;font-family:Open Sans;-inkscape-font-specification:Open Sans"
       id="path4663" />
    <path
       d="m 856.81052,-23.715935 -0.30093,0 c -2.56349,3.722588 -6.39752,5.583879 -11.50212,5.58388 -4.79257,-10e-7 -8.5263,-1.638383 -11.2012,-4.915152 -2.65263,-3.276761 -3.97894,-7.935563 -3.97893,-13.97642 -1e-5,-6.04082 1.33745,-10.733058 4.01236,-14.076728 2.67491,-3.343606 6.39749,-5.015425 11.16777,-5.015462 4.97085,3.7e-5 8.7826,1.805602 11.43525,5.416699 l 0.43467,0 -0.23405,-2.641477 -0.13375,-2.574603 0,-14.912639 5.55044,0 0,52.027054 -4.51391,0 -0.7356,-4.915152 m -11.10089,0.936219 c 3.78944,4e-6 6.53122,-1.025378 8.22536,-3.07615 1.71637,-2.073048 2.57457,-5.40554 2.5746,-9.997486 l 0,-1.170275 c -3e-5,-5.193765 -0.86938,-8.894058 -2.60804,-11.100888 -1.71643,-2.229062 -4.46936,-3.343608 -8.25879,-3.343641 -3.2545,3.3e-5 -5.75108,1.270615 -7.48976,3.811751 -1.71641,2.518902 -2.57461,6.085449 -2.5746,10.699651 -10e-6,4.681111 0.85819,8.214222 2.5746,10.599342 1.71639,2.385136 4.23526,3.5777 7.55663,3.577696"
       style="text-align:end;text-anchor:end;font-family:Open Sans;-inkscape-font-specification:Open Sans"
       id="path4665" />
    <path
       d="m 889.34414,-18.132055 c -5.41672,-10e-7 -9.69657,-1.649529 -12.83958,-4.948589 -3.12074,-3.299051 -4.6811,-7.879835 -4.6811,-13.742364 0,-5.907075 1.44891,-10.599314 4.34673,-14.076729 2.92011,-3.477351 6.83216,-5.216043 11.73618,-5.21608 4.59191,3.7e-5 8.22533,1.51582 10.90027,4.547352 2.67488,3.009307 4.01234,6.988235 4.01237,11.936798 l 0,3.510823 -25.24449,0 c 0.11145,4.302165 1.19256,7.567784 3.24333,9.796869 2.07305,2.229099 4.98201,3.343645 8.72691,3.343641 3.94547,4e-6 7.84638,-0.82476 11.70274,-2.474295 l 0,4.948589 c -1.96163,0.847057 -3.82292,1.448911 -5.58388,1.805566 -1.73872,0.378946 -3.84521,0.568418 -6.31948,0.568419 m -1.50464,-33.336101 c -2.94242,3.3e-5 -5.29411,0.958542 -7.05508,2.875531 -1.73871,1.917049 -2.76409,4.569668 -3.07615,7.957866 l 19.15906,0 c -3e-5,-3.499652 -0.78021,-6.174562 -2.34055,-8.024738 -1.56039,-1.872408 -3.78948,-2.808626 -6.68728,-2.808659"
       style="text-align:end;text-anchor:end;font-family:Open Sans;-inkscape-font-specification:Open Sans"
       id="path4667" />
    <path
       d="m 935.58668,-18.800783 -5.55044,0 0,-52.027054 5.55044,0 0,52.027054"
       style="text-align:end;text-anchor:end;font-family:Open Sans;-inkscape-font-specification:Open Sans"
       id="path4669" />
    <path
       d="m 969.95931,-18.800783 -1.1034,-5.21608 -0.26749,0 c -1.82788,2.29597 -3.65574,3.856334 -5.48357,4.681097 -1.80559,0.802474 -4.06812,1.20371 -6.78759,1.203711 -3.63344,-10e-7 -6.48668,-0.936219 -8.55973,-2.808658 -2.05077,-1.872435 -3.07615,-4.5362 -3.07615,-7.991302 0,-7.400575 5.91824,-11.279195 17.75474,-11.635871 l 6.21917,-0.200619 0,-2.273676 c -3e-5,-2.875504 -0.62417,-4.993141 -1.87244,-6.352917 -1.22602,-1.382007 -3.19877,-2.073025 -5.91824,-2.073058 -3.05388,3.3e-5 -6.50897,0.936251 -10.36529,2.808659 l -1.70526,-4.246424 c 1.80556,-0.980767 3.77831,-1.749803 5.91825,-2.307113 2.1622,-0.557236 4.32442,-0.835873 6.48666,-0.83591 4.369,3.7e-5 7.60118,0.969692 9.69656,2.908968 2.11761,1.939344 3.17643,5.048927 3.17646,9.328758 l 0,25.010435 -4.11268,0 m -12.53865,-3.91206 c 3.45507,4e-6 6.16342,-0.94736 8.12504,-2.842095 1.98387,-1.894721 2.97582,-4.54734 2.97584,-7.957866 l 0,-3.310204 -5.55044,0.234055 c -4.41362,0.156054 -7.60122,0.847072 -9.56281,2.073057 -1.93932,1.203725 -2.90898,3.087308 -2.90897,5.650753 -10e-6,2.006193 0.60185,3.533121 1.80557,4.580789 1.22599,1.047678 2.93124,1.571515 5.11577,1.571511"
       style="text-align:end;text-anchor:end;font-family:Open Sans;-inkscape-font-specification:Open Sans"
       id="path4671" />
    <path
       d="m 862.06003,22.292565 c -5.37214,4.4e-5 -9.61856,1.794463 -12.73927,5.383262 -3.09846,3.566586 -4.64767,8.459442 -4.64766,14.678584 -10e-6,6.397518 1.49348,11.346102 4.48048,14.845766 3.00925,3.477393 7.28911,5.216084 12.83958,5.21608 3.41048,4e-6 7.30024,-0.612996 11.6693,-1.839003 l 0,4.982026 c -3.38826,1.270583 -7.5678,1.905874 -12.53865,1.905875 -7.19999,-10e-7 -12.76158,-2.184511 -16.68477,-6.553536 -3.90092,-4.369014 -5.85137,-10.577035 -5.85137,-18.624081 0,-5.037723 0.93621,-9.451324 2.80866,-13.240818 1.89472,-3.789419 4.61421,-6.709529 8.15848,-8.76034 3.56653,-2.050718 7.75723,-3.0761 12.57209,-3.076149 5.12689,4.9e-5 9.60736,0.936268 13.44144,2.808658 l -2.40742,4.881716 c -3.70033,-1.73865 -7.40063,-2.607996 -11.10089,-2.60804"
       style="text-align:end;text-anchor:end;font-family:Open Sans;-inkscape-font-specification:Open Sans"
       id="path4673" />
    <path
       d="m 900.21097,29.481393 c 1.62722,3.7e-5 3.08727,0.133783 4.38017,0.401237 l -0.76904,5.149207 c -1.5158,-0.334332 -2.85326,-0.501514 -4.01236,-0.501546 -2.96472,3.2e-5 -5.50588,1.203742 -7.62351,3.611132 -2.09536,2.407448 -3.14303,5.405577 -3.14302,8.994395 l 0,19.660609 -5.55044,0 0,-36.646306 4.58079,0 0.63529,6.787592 0.26749,0 c 1.35973,-2.385099 2.99812,-4.2241 4.91515,-5.517008 1.917,-1.292838 4.02349,-1.939275 6.31948,-1.939312"
       style="text-align:end;text-anchor:end;font-family:Open Sans;-inkscape-font-specification:Open Sans"
       id="path4675" />
    <path
       d="m 916.66169,30.150121 0,23.773288 c -2e-5,2.986996 0.67986,5.216088 2.03962,6.687282 1.35973,1.471207 3.48851,2.206807 6.38635,2.206803 3.83402,4e-6 6.63153,-1.047669 8.39254,-3.143023 1.78325,-2.095339 2.67488,-5.516995 2.67491,-10.264977 l 0,-19.259373 5.55045,0 0,36.646306 -4.58079,0 -0.80248,-4.915153 -0.30092,0 c -1.13687,1.80557 -2.71953,3.187607 -4.74797,4.146115 -2.00621,0.958511 -4.30218,1.437765 -6.8879,1.437766 -4.45821,-10e-7 -7.80184,-1.058819 -10.03093,-3.176459 -2.20681,-2.117635 -3.31021,-5.505854 -3.3102,-10.164669 l 0,-23.973906 5.61732,0"
       style="text-align:end;text-anchor:end;font-family:Open Sans;-inkscape-font-specification:Open Sans"
       id="path4677" />
    <path
       d="m 976.88066,66.796427 -26.58194,0 0,-3.778315 19.99497,-28.554694 -18.75783,0 0,-4.313297 24.84326,0 0,4.313297 -19.72749,28.019712 20.22903,0 0,4.313297"
       style="text-align:end;text-anchor:end;font-family:Open Sans;-inkscape-font-specification:Open Sans"
       id="path4679" />
  </g>
  <path
     inkscape:connector-curvature="0"
     style="color:#000000;fill:none;stroke:#696969;stroke-width:14.30159854999999958;stroke-linecap:butt;stroke-linejoin:bevel;stroke-miterlimit:4;stroke-opacity:1;stroke-dashoffset:0;marker:none;visibility:visible;display:inline;overflow:visible;enable-background:accumulate"
     d="m 1614.9303,-35.607857 c 0,9.41305 -7.6307,17.04375 -17.0437,17.04375 -9.413,0 -17.0438,-7.6307 -17.0438,-17.04375 0,-9.413 7.6308,-17.04371 17.0438,-17.04371 9.413,0 17.0437,7.63071 17.0437,17.04371 z"
     id="path4172-6-8-6"
     inkscape:export-filename="/home/icoloma/code/wedding/img/tenerife.png"
     inkscape:export-xdpi="89.849998"
     inkscape:export-ydpi="89.849998" />
  <g
     style="font-size:68.47776794px;font-style:normal;font-variant:normal;font-weight:normal;font-stretch:normal;line-height:125%;letter-spacing:0px;word-spacing:0px;fill:#000000;fill-opacity:1;stroke:none;font-family:Minion LT;-inkscape-font-specification:Minion LT"
     id="text4516-5">
    <path
       d="m 1615.9979,73.75777 c 0,4.302161 -1.5604,7.656944 -4.6811,10.06436 -3.1207,2.407422 -7.356,3.611132 -12.7058,3.611132 -5.7956,0 -10.2538,-0.746746 -13.3746,-2.240239 l 0,-5.483572 c 2.0062,0.847062 4.1907,1.51579 6.5536,2.006185 2.3628,0.490405 4.7034,0.735605 7.0216,0.735601 3.7895,4e-6 6.6427,-0.713305 8.5598,-2.13993 1.9169,-1.448903 2.8755,-3.455086 2.8755,-6.018554 0,-1.694097 -0.3456,-3.076134 -1.0365,-4.146115 -0.6688,-1.092238 -1.8056,-2.095329 -3.4106,-3.009277 -1.5826,-0.913908 -4.0012,-1.950435 -7.2557,-3.109586 -4.5473,-1.627214 -7.8018,-3.555379 -9.7634,-5.784499 -1.9393,-2.229063 -2.909,-5.138028 -2.909,-8.726903 0,-3.767128 1.4155,-6.765256 4.2465,-8.994394 2.8309,-2.229046 6.5758,-3.343592 11.2346,-3.343641 4.8594,4.9e-5 9.3287,0.891686 13.408,2.674913 l -1.7721,4.948588 c -4.0347,-1.694068 -7.9579,-2.541122 -11.7696,-2.541167 -3.0093,4.5e-5 -5.361,0.646481 -7.0551,1.939312 -1.6942,1.292916 -2.5412,3.087335 -2.5412,5.383262 0,1.694147 0.3121,3.087329 0.9362,4.179551 0.6242,1.069997 1.6718,2.061943 3.143,2.975841 1.4935,0.891666 3.7672,1.883612 6.8211,2.97584 5.1269,1.827883 8.6488,3.789483 10.5659,5.884808 1.9393,2.095368 2.9089,4.81486 2.9089,8.158484"
       style="text-align:end;text-anchor:end;font-family:Open Sans;-inkscape-font-specification:Open Sans"
       id="path4682" />
    <path
       d="m 1647.6957,86.764534 -1.1034,-5.21608 -0.2675,0 c -1.8279,2.29597 -3.6558,3.856334 -5.4836,4.681097 -1.8056,0.802474 -4.0681,1.203711 -6.7876,1.203711 -3.6334,0 -6.4867,-0.936219 -8.5597,-2.808658 -2.0508,-1.872435 -3.0762,-4.5362 -3.0762,-7.991302 0,-7.400575 5.9183,-11.279195 17.7548,-11.635871 l 6.2191,-0.200618 0,-2.273676 c 0,-2.875505 -0.6241,-4.993142 -1.8724,-6.352918 -1.226,-1.382007 -3.1988,-2.073025 -5.9182,-2.073058 -3.0539,3.3e-5 -6.509,0.936252 -10.3653,2.808659 l -1.7053,-4.246424 c 1.8056,-0.980767 3.7783,-1.749803 5.9183,-2.307113 2.1622,-0.557236 4.3244,-0.835873 6.4866,-0.83591 4.369,3.7e-5 7.6012,0.969692 9.6966,2.908968 2.1176,1.939344 3.1764,5.048927 3.1764,9.328758 l 0,25.010435 -4.1126,0 m -12.5387,-3.91206 c 3.4551,4e-6 6.1634,-0.94736 8.1251,-2.842095 1.9838,-1.894721 2.9758,-4.54734 2.9758,-7.957865 l 0,-3.310205 -5.5504,0.234055 c -4.4137,0.156054 -7.6013,0.847072 -9.5629,2.073057 -1.9393,1.203726 -2.9089,3.087308 -2.9089,5.650754 0,2.006192 0.6018,3.53312 1.8055,4.580788 1.226,1.047678 2.9313,1.571515 5.1158,1.571511"
       style="text-align:end;text-anchor:end;font-family:Open Sans;-inkscape-font-specification:Open Sans"
       id="path4684" />
    <path
       d="m 1688.3543,86.764534 0,-23.706415 c 0,-2.986959 -0.6799,-5.216051 -2.0396,-6.687282 -1.3598,-1.47117 -3.4885,-2.20677 -6.3863,-2.206803 -3.8341,3.3e-5 -6.6428,1.03656 -8.426,3.109586 -1.7833,2.073085 -2.6749,5.494741 -2.6749,10.264978 l 0,19.225936 -5.5505,0 0,-36.646306 4.5139,0 0.9028,5.015462 0.2675,0 c 1.1368,-1.805533 2.7306,-3.198715 4.7814,-4.179551 2.0508,-1.003056 4.3356,-1.504601 6.8545,-1.504639 4.4136,3.8e-5 7.7349,1.070002 9.964,3.209896 2.2291,2.117671 3.3436,5.517036 3.3437,10.198105 l 0,23.907033 -5.5505,0"
       style="text-align:end;text-anchor:end;font-family:Open Sans;-inkscape-font-specification:Open Sans"
       id="path4686" />
    <path
       d="m 1717.1097,82.852474 c 0.9807,4e-6 1.9281,-0.06687 2.842,-0.200618 0.914,-0.156033 1.6384,-0.312069 2.1734,-0.46811 l 0,4.246424 c -0.6019,0.289782 -1.4935,0.523837 -2.6749,0.702165 -1.1591,0.200617 -2.2068,0.300927 -3.143,0.300927 -7.0886,0 -10.6328,-3.733729 -10.6328,-11.201197 l 0,-21.80054 -5.2495,0 0,-2.674912 5.2495,-2.307113 2.3405,-7.82412 3.2099,0 0,8.492848 10.6328,0 0,4.313297 -10.6328,0 0,21.566485 c 0,2.206812 0.5239,3.900921 1.5716,5.082334 1.0476,1.181425 2.4854,1.772134 4.3133,1.77213"
       style="text-align:end;text-anchor:end;font-family:Open Sans;-inkscape-font-specification:Open Sans"
       id="path4688" />
    <path
       d="m 1752.0173,86.764534 -1.1034,-5.21608 -0.2675,0 c -1.8279,2.29597 -3.6558,3.856334 -5.4836,4.681097 -1.8056,0.802474 -4.0681,1.203711 -6.7876,1.203711 -3.6334,0 -6.4867,-0.936219 -8.5597,-2.808658 -2.0508,-1.872435 -3.0762,-4.5362 -3.0762,-7.991302 0,-7.400575 5.9183,-11.279195 17.7548,-11.635871 l 6.2191,-0.200618 0,-2.273676 c 0,-2.875505 -0.6241,-4.993142 -1.8724,-6.352918 -1.226,-1.382007 -3.1988,-2.073025 -5.9182,-2.073058 -3.0539,3.3e-5 -6.509,0.936252 -10.3653,2.808659 l -1.7053,-4.246424 c 1.8056,-0.980767 3.7783,-1.749803 5.9183,-2.307113 2.1622,-0.557236 4.3244,-0.835873 6.4866,-0.83591 4.369,3.7e-5 7.6012,0.969692 9.6966,2.908968 2.1176,1.939344 3.1764,5.048927 3.1764,9.328758 l 0,25.010435 -4.1126,0 m -12.5387,-3.91206 c 3.4551,4e-6 6.1634,-0.94736 8.1251,-2.842095 1.9838,-1.894721 2.9758,-4.54734 2.9758,-7.957865 l 0,-3.310205 -5.5504,0.234055 c -4.4137,0.156054 -7.6013,0.847072 -9.5629,2.073057 -1.9393,1.203726 -2.9089,3.087308 -2.9089,5.650754 0,2.006192 0.6018,3.53312 1.8055,4.580788 1.226,1.047678 2.9313,1.571515 5.1158,1.571511"
       style="text-align:end;text-anchor:end;font-family:Open Sans;-inkscape-font-specification:Open Sans"
       id="path4690" />
    <path
       d="m 1807.1539,42.260672 c -5.3721,4.5e-5 -9.6186,1.794464 -12.7393,5.383262 -3.0984,3.566586 -4.6476,8.459443 -4.6476,14.678584 0,6.397518 1.4934,11.346102 4.4804,14.845766 3.0093,3.477393 7.2892,5.216085 12.8396,5.21608 3.4105,5e-6 7.3003,-0.612996 11.6693,-1.839002 l 0,4.982025 c -3.3882,1.270583 -7.5678,1.905875 -12.5386,1.905875 -7.2,0 -12.7616,-2.18451 -16.6848,-6.553536 -3.9009,-4.369014 -5.8514,-10.577035 -5.8514,-18.624081 0,-5.037723 0.9363,-9.451324 2.8087,-13.240818 1.8947,-3.789418 4.6142,-6.709529 8.1585,-8.760339 3.5665,-2.050718 7.7572,-3.076101 12.5721,-3.07615 5.1269,4.9e-5 9.6073,0.936268 13.4414,2.808658 l -2.4074,4.881716 c -3.7003,-1.73865 -7.4006,-2.607995 -11.1009,-2.60804"
       style="text-align:end;text-anchor:end;font-family:Open Sans;-inkscape-font-specification:Open Sans"
       id="path4692" />
    <path
       d="m 1845.3048,49.4495 c 1.6273,3.8e-5 3.0873,0.133783 4.3802,0.401237 l -0.769,5.149207 c -1.5158,-0.334332 -2.8533,-0.501514 -4.0124,-0.501546 -2.9647,3.2e-5 -5.5059,1.203742 -7.6235,3.611133 -2.0954,2.407447 -3.143,5.405576 -3.143,8.994394 l 0,19.660609 -5.5505,0 0,-36.646306 4.5808,0 0.6353,6.787592 0.2675,0 c 1.3597,-2.385099 2.9981,-4.224099 4.9152,-5.517008 1.917,-1.292838 4.0235,-1.939274 6.3194,-1.939312"
       style="text-align:end;text-anchor:end;font-family:Open Sans;-inkscape-font-specification:Open Sans"
       id="path4694" />
    <path
       d="m 1861.7556,50.118228 0,23.773288 c 0,2.986996 0.6798,5.216088 2.0396,6.687282 1.3597,1.471207 3.4885,2.206807 6.3863,2.206803 3.8341,4e-6 6.6316,-1.047669 8.3926,-3.143022 1.7832,-2.09534 2.6749,-5.516995 2.6749,-10.264978 l 0,-19.259373 5.5504,0 0,36.646306 -4.5807,0 -0.8025,-4.915152 -0.3009,0 c -1.1369,1.805569 -2.7196,3.187606 -4.748,4.146115 -2.0062,0.95851 -4.3022,1.437765 -6.8879,1.437765 -4.4582,0 -7.8019,-1.058819 -10.0309,-3.176459 -2.2069,-2.117634 -3.3103,-5.505854 -3.3102,-10.164668 l 0,-23.973907 5.6173,0"
       style="text-align:end;text-anchor:end;font-family:Open Sans;-inkscape-font-specification:Open Sans"
       id="path4696" />
    <path
       d="m 1921.9745,86.764534 -26.5819,0 0,-3.778314 19.995,-28.554695 -18.7579,0 0,-4.313297 24.8433,0 0,4.313297 -19.7275,28.019712 20.229,0 0,4.313297"
       style="text-align:end;text-anchor:end;font-family:Open Sans;-inkscape-font-specification:Open Sans"
       id="path4698" />
  </g>
  <path
     style="fill:none;stroke:#ff0000;stroke-width:3.29999995;stroke-linecap:butt;stroke-linejoin:miter;stroke-miterlimit:4;stroke-opacity:1;stroke-dasharray:3.3, 3.3;stroke-dashoffset:0"
     d="m 220.06245,375.6893 65.56987,-66.23765 c 5.15085,-44.94871 26.83146,-80.77755 51.93201,-110.90647 -8.34637,-20.18484 -3.86794,-41.79466 8.59038,-61.4095 l 58.50226,-45.996003"
     id="path4570"
     inkscape:connector-curvature="0"
     transform="matrix(3.8887086,0,0,3.8887086,0,-379.05221)"
     sodipodi:nodetypes="ccccc" />
  <path
     style="fill:none;stroke:#0864c7;stroke-width:12.83273792;stroke-linecap:butt;stroke-linejoin:miter;stroke-miterlimit:4;stroke-opacity:1;stroke-dasharray:12.83273839, 12.83273839;stroke-dashoffset:0"
     d="m 1331.7045,177.50607 c 18.5918,-74.5126 173.2077,-270.893405 92.9255,-261.004232 l -191.3389,23.569163 -129.4296,126.6207"
     id="path4570-2"
     inkscape:connector-curvature="0"
     sodipodi:nodetypes="cscc" />
  <path
     style="fill:none;stroke:#0864c7;stroke-width:12.83273839;stroke-linecap:butt;stroke-linejoin:miter;stroke-miterlimit:4;stroke-opacity:1;stroke-dasharray:12.83273839,12.83273839;stroke-dashoffset:0"
     d="M 844.6589,1078.1688 1099.641,820.5899 c 20.0302,-174.79243 104.3397,-314.12035 201.9485,-431.28294 -32.4566,-78.49295 -15.0413,-162.52725 33.4054,-238.80364"
     id="path4570-5"
     inkscape:connector-curvature="0"
     sodipodi:nodetypes="cccc" />
  <g
     style="font-size:68.46640778px;font-style:normal;font-variant:normal;font-weight:normal;font-stretch:normal;line-height:125%;letter-spacing:0px;word-spacing:0px;fill:#0864c7;fill-opacity:1;stroke:none;font-family:Minion LT;-inkscape-font-specification:Minion LT"
     id="text4627">
    <path
       d="m 883.81439,135.9811 13.80695,0 c 6.48556,5e-5 11.17702,0.96955 14.07439,2.90849 2.8973,1.93903 4.34597,5.00353 4.34601,9.19349 -4e-5,2.89737 -0.81352,5.29325 -2.44045,7.18763 -1.60472,1.87216 -3.95602,3.08681 -7.05391,3.64397 l 0,0.3343 c 7.42161,1.2704 11.13243,5.17066 11.13248,11.70081 -5e-5,4.36831 -1.48215,7.77825 -4.44631,10.22984 -2.94195,2.4516 -7.06508,3.6774 -12.36942,3.6774 l -17.04974,0 0,-48.87593 m 5.68325,20.92772 9.36064,0 c 4.01168,3e-5 6.89787,-0.62401 8.65859,-1.87212 1.76066,-1.27035 2.64101,-3.39878 2.64104,-6.3853 -3e-5,-2.74129 -0.98067,-4.71371 -2.94191,-5.91726 -1.96131,-1.22576 -5.08152,-1.83866 -9.36065,-1.8387 l -8.35771,0 0,16.01338 m 0,4.81405 0,18.28668 10.19641,0 c 3.94482,0 6.90902,-0.75776 8.89261,-2.2733 2.00582,-1.53781 3.00874,-3.93369 3.00878,-7.18763 -4e-5,-3.03105 -1.02525,-5.25977 -3.07564,-6.68618 -2.02817,-1.42636 -5.12609,-2.13955 -9.29378,-2.13957 l -9.72838,0"
       style="fill:#0864c7;font-family:Open Sans;-inkscape-font-specification:Open Sans"
       id="path4701" />
    <path
       d="m 965.11825,135.9811 0,31.6256 c -4e-5,5.57182 -1.68273,9.95126 -5.04806,13.13833 -3.36541,3.18708 -7.99001,4.78061 -13.87381,4.78061 -5.88385,0 -10.44158,-1.60468 -13.67322,-4.81404 -3.20937,-3.20936 -4.81405,-7.62223 -4.81405,-13.23862 l 0,-31.49188 5.68325,0 0,31.89305 c -1e-5,4.07857 1.11435,7.20993 3.34309,9.39407 2.2287,2.18415 5.50493,3.27623 9.82867,3.27622 4.12311,1e-5 7.29904,-1.09207 9.5278,-3.27622 2.22869,-2.20643 3.34305,-5.36007 3.34308,-9.46094 l 0,-31.82618 5.68325,0"
       style="fill:#0864c7;font-family:Open Sans;-inkscape-font-specification:Open Sans"
       id="path4703" />
    <path
       d="m 1005.6699,171.85242 c 0,4.30145 -1.5601,7.65567 -4.6803,10.06269 -3.12027,2.40702 -7.35484,3.61053 -12.70376,3.61053 -5.79469,0 -10.25213,-0.74662 -13.37234,-2.23987 l 0,-5.48266 c 2.00585,0.84692 4.18999,1.51554 6.55245,2.00585 2.36243,0.49033 4.70259,0.73549 7.02048,0.73548 3.78881,1e-5 6.64157,-0.71318 8.5583,-2.13957 1.91668,-1.44866 2.87503,-3.45451 2.87505,-6.01756 -2e-5,-1.69381 -0.34548,-3.07562 -1.03635,-4.14542 -0.66865,-1.09206 -1.80529,-2.09499 -3.40995,-3.00878 -1.58242,-0.91376 -4.00058,-1.95011 -7.2545,-3.10907 -4.54661,-1.62695 -7.80054,-3.55479 -9.76181,-5.78354 -1.93899,-2.22869 -2.90849,-5.13718 -2.90848,-8.72546 -10e-6,-3.7665 1.41523,-6.76413 4.24571,-8.9929 2.83047,-2.22867 6.57473,-3.34304 11.23277,-3.34308 4.8586,4e-5 9.32723,0.89153 13.40583,2.67446 l -1.7719,4.94777 c -4.034,-1.69378 -7.95655,-2.5407 -11.76765,-2.54074 -3.00879,4e-5 -5.36009,0.64637 -7.05391,1.93899 -1.69384,1.2927 -2.54076,3.08682 -2.54075,5.38237 -1e-5,1.69386 0.31201,3.08681 0.93607,4.17885 0.62403,1.06982 1.67153,2.0616 3.1425,2.97535 1.49323,0.89152 3.76653,1.8833 6.8199,2.97535 5.12603,1.82758 8.64744,3.78885 10.56414,5.88383 1.939,2.09502 2.9085,4.81406 2.9085,8.15713"
       style="fill:#0864c7;font-family:Open Sans;-inkscape-font-specification:Open Sans"
       id="path4705" />
    <path
       d="m 1060.3628,147.48132 c 0,3.12025 -0.8804,5.67213 -2.6411,7.65567 -1.7384,1.98359 -4.2123,3.30968 -7.4216,3.97827 l 0,0.26745 c 3.9225,0.49034 6.831,1.73843 8.7255,3.74425 1.8943,2.00588 2.8415,4.63577 2.8416,7.88969 -10e-5,4.65804 -1.6159,8.24628 -4.8475,10.76474 -3.2317,2.49617 -7.8228,3.74425 -13.7735,3.74425 -2.5853,0 -4.9589,-0.20058 -7.1208,-0.60175 -2.1396,-0.37889 -4.2234,-1.05865 -6.2516,-2.03929 l 0,-5.28207 c 2.1173,1.0475 4.3683,1.84984 6.7531,2.40702 2.407,0.5349 4.6803,0.80234 6.8199,0.80234 8.4468,0 12.6702,-3.30965 12.6703,-9.92897 -10e-5,-5.92838 -4.6581,-8.89258 -13.9741,-8.89261 l -4.8141,0 0,-4.78061 4.8809,0 c 3.8111,3e-5 6.831,-0.83574 9.0598,-2.50731 2.2287,-1.6938 3.3431,-4.03396 3.3431,-7.02048 0,-2.3847 -0.8247,-4.25683 -2.4739,-5.61639 -1.627,-1.35948 -3.8446,-2.03924 -6.6527,-2.03928 -2.1396,4e-5 -4.1566,0.28978 -6.051,0.8692 -1.8945,0.57951 -4.0563,1.6493 -6.4856,3.20936 l -2.8082,-3.74425 c 2.0058,-1.58235 4.3126,-2.81929 6.9202,-3.71083 2.6299,-0.91373 5.3935,-1.37062 8.2908,-1.37066 4.7472,4e-5 8.4357,1.09212 11.0656,3.27622 2.6299,2.16191 3.9449,5.13725 3.9449,8.92604"
       style="fill:#0864c7;font-family:Open Sans;-inkscape-font-specification:Open Sans"
       id="path4707" />
    <path
       d="m 1103.6892,173.62426 -7.2545,0 0,11.23277 -5.3155,0 0,-11.23277 -23.7694,0 0,-4.84748 23.2011,-33.06312 5.8838,0 0,32.86253 7.2545,0 0,5.04807 m -12.57,-5.04807 0,-16.24739 c 0,-3.18704 0.1114,-6.78643 0.3343,-10.79817 l -0.2675,0 c -1.0698,2.13961 -2.0727,3.91145 -3.0087,5.3155 l -15.2779,21.73006 18.2198,0"
       style="fill:#0864c7;font-family:Open Sans;-inkscape-font-specification:Open Sans"
       id="path4709" />
    <path
       d="m 1138.7247,147.48132 c 0,3.12025 -0.8804,5.67213 -2.641,7.65567 -1.7384,1.98359 -4.2123,3.30968 -7.4217,3.97827 l 0,0.26745 c 3.9226,0.49034 6.831,1.73843 8.7255,3.74425 1.8944,2.00588 2.8416,4.63577 2.8416,7.88969 0,4.65804 -1.6158,8.24628 -4.8475,10.76474 -3.2316,2.49617 -7.8228,3.74425 -13.7735,3.74425 -2.5853,0 -4.9589,-0.20058 -7.1208,-0.60175 -2.1395,-0.37889 -4.2234,-1.05865 -6.2515,-2.03929 l 0,-5.28207 c 2.1173,1.0475 4.3683,1.84984 6.753,2.40702 2.407,0.5349 4.6803,0.80234 6.8199,0.80234 8.4468,0 12.6703,-3.30965 12.6703,-9.92897 0,-5.92838 -4.6581,-8.89258 -13.9741,-8.89261 l -4.814,0 0,-4.78061 4.8809,0 c 3.8111,3e-5 6.831,-0.83574 9.0597,-2.50731 2.2287,-1.6938 3.3431,-4.03396 3.3431,-7.02048 0,-2.3847 -0.8246,-4.25683 -2.4739,-5.61639 -1.627,-1.35948 -3.8445,-2.03924 -6.6527,-2.03928 -2.1396,4e-5 -4.1566,0.28978 -6.051,0.8692 -1.8944,0.57951 -4.0563,1.6493 -6.4856,3.20936 l -2.8082,-3.74425 c 2.0059,-1.58235 4.3126,-2.81929 6.9202,-3.71083 2.6299,-0.91373 5.3935,-1.37062 8.2909,-1.37066 4.7471,4e-5 8.4357,1.09212 11.0656,3.27622 2.6298,2.16191 3.9448,5.13725 3.9448,8.92604"
       style="fill:#0864c7;font-family:Open Sans;-inkscape-font-specification:Open Sans"
       id="path4711" />
  </g>
  <g
     inkscape:transform-center-x="80.205913"
     inkscape:transform-center-y="-6.460575"
     style="font-size:68.46640778px;font-style:normal;font-variant:normal;font-weight:normal;font-stretch:normal;line-height:125%;letter-spacing:0px;word-spacing:0px;fill:#ff0000;fill-opacity:1;stroke:none;font-family:Minion LT;-inkscape-font-specification:Minion LT"
     id="text4627-6">
    <path
       d="m 1665.6517,-53.950945 13.807,0 c 6.4855,4.9e-5 11.177,0.969543 14.0744,2.908485 2.8973,1.939035 4.3459,5.003527 4.346,9.193488 -1e-4,2.897375 -0.8135,5.293251 -2.4405,7.187635 -1.6047,1.872156 -3.956,3.08681 -7.0539,3.643964 l 0,0.334309 c 7.4216,1.270397 11.1325,5.170661 11.1325,11.700802 0,4.368309 -1.4821,7.778254 -4.4463,10.2298444 -2.942,2.4515978 -7.0651,3.6773949 -12.3694,3.6773949 l -17.0498,0 0,-48.8759223 m 5.6833,20.927721 9.3606,0 c 4.0117,2.8e-5 6.8979,-0.624015 8.6586,-1.872129 1.7607,-1.270341 2.641,-3.398771 2.6411,-6.385295 -10e-5,-2.741291 -0.9807,-4.71371 -2.942,-5.917262 -1.9613,-1.225755 -5.0815,-1.838654 -9.3606,-1.838698 l -8.3577,0 0,16.013384 m 0,4.814044 0,18.2866821 10.1964,0 c 3.9448,4.9e-6 6.909,-0.7577601 8.8926,-2.2732991 2.0058,-1.537811 3.0087,-3.933687 3.0088,-7.187635 -10e-5,-3.031048 -1.0253,-5.25977 -3.0757,-6.686173 -2.0281,-1.426361 -5.1261,-2.139552 -9.2937,-2.139575 l -9.7284,0"
       style="fill:#ff0000;font-family:Open Sans;-inkscape-font-specification:Open Sans"
       id="path4714" />
    <path
       d="m 1746.9556,-53.950945 0,31.625597 c -10e-5,5.571822 -1.6827,9.951261 -5.0481,13.1383291 -3.3654,3.1870766 -7.99,4.7806128 -13.8738,4.7806135 -5.8838,-7e-7 -10.4416,-1.6046805 -13.6732,-4.8140443 -3.2094,-3.2093553 -4.814,-7.6222253 -4.814,-13.2386223 l 0,-31.491873 5.6832,0 0,31.893044 c 0,4.078578 1.1144,7.209932 3.3431,9.394072 2.2287,2.184155 5.5049,3.2762293 9.8287,3.276225 4.1231,4.3e-6 7.299,-1.09207 9.5278,-3.276225 2.2286,-2.206427 3.343,-5.360068 3.343,-9.460934 l 0,-31.826182 5.6833,0"
       style="fill:#ff0000;font-family:Open Sans;-inkscape-font-specification:Open Sans"
       id="path4716" />
    <path
       d="m 1787.5072,-18.079628 c 0,4.301446 -1.5601,7.655673 -4.6803,10.0626893 -3.1202,2.4070227 -7.3548,3.6105326 -12.7037,3.6105333 -5.7947,-7e-7 -10.2522,-0.7466226 -13.3724,-2.2398679 l 0,-5.4826617 c 2.0059,0.846922 4.19,1.515538 6.5525,2.005852 2.3624,0.4903238 4.7026,0.7354833 7.0205,0.735479 3.7888,4.3e-6 6.6415,-0.713187 8.5583,-2.139575 1.9166,-1.448663 2.875,-3.454513 2.875,-6.017556 0,-1.693816 -0.3455,-3.075624 -1.0363,-4.145427 -0.6687,-1.092057 -1.8053,-2.094982 -3.41,-3.008777 -1.5824,-0.913757 -4.0006,-1.950112 -7.2545,-3.109071 -4.5466,-1.626944 -7.8005,-3.554788 -9.7618,-5.783539 -1.939,-2.228693 -2.9085,-5.137176 -2.9085,-8.725455 0,-3.766503 1.4153,-6.764134 4.2457,-8.992902 2.8305,-2.228676 6.5748,-3.343037 11.2328,-3.343087 4.8586,5e-5 9.3272,0.891539 13.4058,2.674469 l -1.7718,4.947768 c -4.0341,-1.693787 -7.9566,-2.540701 -11.7677,-2.540746 -3.0088,4.5e-5 -5.3601,0.646374 -7.0539,1.93899 -1.6939,1.292702 -2.5408,3.086823 -2.5408,5.382369 0,1.693866 0.312,3.086818 0.9361,4.178858 0.624,1.06982 1.6715,2.061601 3.1425,2.975347 1.4932,0.891519 3.7665,1.8833 6.8199,2.975347 5.126,1.827579 8.6474,3.788854 10.5641,5.883832 1.939,2.09502 2.9085,4.814061 2.9085,8.157131"
       style="fill:#ff0000;font-family:Open Sans;-inkscape-font-specification:Open Sans"
       id="path4718" />
    <path
       d="m 1832.4717,-5.0750227 -5.4158,0 0,-34.8349593 c 0,-2.897304 0.089,-5.638632 0.2675,-8.223992 -0.4681,0.468074 -0.9918,0.958393 -1.5713,1.470958 -0.5794,0.512647 -3.2316,2.685651 -7.9565,6.519018 l -2.9419,-3.811119 12.9377,-9.995828 4.6803,0 0,48.8759223"
       style="fill:#ff0000;font-family:Open Sans;-inkscape-font-specification:Open Sans"
       id="path4720" />
    <path
       d="m 1871.6527,-5.0750227 -5.4158,0 0,-34.8349593 c 0,-2.897304 0.089,-5.638632 0.2675,-8.223992 -0.4681,0.468074 -0.9918,0.958393 -1.5713,1.470958 -0.5795,0.512647 -3.2317,2.685651 -7.9565,6.519018 l -2.9419,-3.811119 12.9377,-9.995828 4.6803,0 0,48.8759223"
       style="fill:#ff0000;font-family:Open Sans;-inkscape-font-specification:Open Sans"
       id="path4722" />
    <path
       d="m 1910.8337,-5.0750227 -5.4158,0 0,-34.8349593 c 0,-2.897304 0.089,-5.638632 0.2674,-8.223992 -0.468,0.468074 -0.9918,0.958393 -1.5712,1.470958 -0.5795,0.512647 -3.2317,2.685651 -7.9566,6.519018 l -2.9419,-3.811119 12.9378,-9.995828 4.6803,0 0,48.8759223"
       style="fill:#ff0000;font-family:Open Sans;-inkscape-font-specification:Open Sans"
       id="path4724" />
  </g>
  <path
     transform="matrix(4.4692496,0,0,4.4692496,1022.6721,-843.76967)"
     style="color:#000000;fill:none;stroke:#696969;stroke-width:3.19999981000000000;stroke-linecap:butt;stroke-linejoin:bevel;stroke-miterlimit:4;stroke-dashoffset:0;stroke-opacity:1;marker:none;visibility:visible;display:inline;overflow:visible;enable-background:accumulate"
     d="m 98.94068,169.70338 c 0,2.10618 -1.707388,3.81356 -3.813559,3.81356 -2.106171,0 -3.813559,-1.70738 -3.813559,-3.81356 0,-2.10617 1.707388,-3.81355 3.813559,-3.81355 2.106171,0 3.813559,1.70738 3.813559,3.81355 z"
     id="path4172-6"
     inkscape:export-filename="/home/icoloma/code/wedding/img/tenerife.png"
     inkscape:export-xdpi="89.849998"
     inkscape:export-ydpi="89.849998" />
</svg>
