<?xml version="1.0" encoding="UTF-8" standalone="no"?>
<!-- Creator: ESRI ArcMap 9.0.0.535 -->

<svg
   xmlns:dc="http://purl.org/dc/elements/1.1/"
   xmlns:cc="http://creativecommons.org/ns#"
   xmlns:rdf="http://www.w3.org/1999/02/22-rdf-syntax-ns#"
   xmlns:svg="http://www.w3.org/2000/svg"
   xmlns="http://www.w3.org/2000/svg"
   xmlns:sodipodi="http://sodipodi.sourceforge.net/DTD/sodipodi-0.dtd"
   xmlns:inkscape="http://www.inkscape.org/namespaces/inkscape"
   width="500.85617"
   height="415.99377"
   viewBox="0 0 1947.6837 859.57414"
   id="svg3147"
   version="1.1"
   inkscape:version="0.48.4 r9939"
   sodipodi:docname="Tenerife.svg">
  <metadata
     id="metadata3218">
    <rdf:RDF>
      <cc:Work
         rdf:about="">
        <dc:format>image/svg+xml</dc:format>
        <dc:type
           rdf:resource="http://purl.org/dc/dcmitype/StillImage" />
        <dc:title></dc:title>
      </cc:Work>
    </rdf:RDF>
  </metadata>
  <defs
     id="defs3216" />
  <sodipodi:namedview
     pagecolor="#ffffff"
     bordercolor="#666666"
     borderopacity="1"
     objecttolerance="10"
     gridtolerance="10"
     guidetolerance="10"
     inkscape:pageopacity="0"
     inkscape:pageshadow="2"
     inkscape:window-width="1855"
     inkscape:window-height="1056"
     id="namedview3214"
     showgrid="false"
     inkscape:zoom="1.2405569"
     inkscape:cx="25.534218"
     inkscape:cy="168.27681"
     inkscape:window-x="65"
     inkscape:window-y="24"
     inkscape:window-maximized="1"
     inkscape:current-layer="svg3147"
     fit-margin-top="0"
     fit-margin-left="0"
     fit-margin-right="0"
     fit-margin-bottom="0" />
  <path
     inkscape:connector-curvature="0"
     id="path3212"
     d="m 1844.9886,-368.857 -6.2939,6.29385 6.2939,4.10468 0,-10.39853 z m 2.1891,16.69235 -21.0707,8.48301 -14.7768,0 -27.3645,23.25988 -94.4077,29.28005 -44.3305,-18.88154 -35.5739,4.10468 -35.8476,-20.79703 -4.1046,14.50318 -25.1754,-12.58767 -10.6722,16.966 -8.483,-2.18916 -10.3985,6.29384 -22.9862,-14.77683 -21.0707,8.48299 -6.2938,-16.69235 -10.6722,-2.18917 -20.7971,12.58767 -8.483,42.14139 -46.246,12.58769 -2.1892,8.20937 -25.1754,10.67215 -42.1414,-4.3783 -33.3847,23.25984 -2.1891,12.5877 -14.7769,8.48298 -14.7768,8.20937 -25.1754,25.44901 -1.9155,27.0909 -10.6722,14.77684 2.1892,6.29384 -12.5877,33.658383 -33.6584,18.88153 -4.1047,16.96601 -14.7768,-8.48301 6.2938,8.48301 -16.966,12.58768 2.1892,8.20936 -4.1047,19.15518 -23.2599,-2.18917 -1.9155,10.3985302 -14.7768,2.18916 8.2093,16.6923698 -10.3985,14.77685 -31.4692,14.77684 -14.7769,-6.29384 -8.483,4.10468 -14.5032,35.84754 -48.43529,21.07069 -42.14139,-2.18916 -4.10468,-6.29384 -6.29385,6.29384 -22.9862,-2.18916 -10.67217,14.776837 -10.39851,6.29385 -4.37833,-6.29385 -6.29384,6.29385 -6.29385,6.29384 -6.29385,10.67217 -12.58767,-2.18916 -21.0707,16.69236 -14.50319,2.18917 -8.48301,-8.48301 -12.58769,16.96602 -27.36453,-2.18916 -25.17539,-2.18917 -29.55369,4.37833 -16.69235,-12.5877 -10.67218,4.10469 -10.39853,4.10468 -12.58767,-14.50321 -14.77686,4.10468 -10.39853,-4.10468 -6.29384,4.10468 -6.29382,-8.483 -6.29385,23.25986 -18.88154,6.29382 -18.88152,-4.3783 -4.37833,-8.20937 -4.10468,22.9862 -12.5877,8.48301 -29.55369,0 -14.77683,-10.67217 -16.69238,29.55369 -10.39853,-2.18914 -4.37833,-12.58769 -14.77683,4.37833 -29.28004,25.17536 -31.46924,-12.5877 -12.58767,10.39853 -6.29385,-8.48301 -58.83376,23.25987 -19.15516,-37.76305 -4.10468,8.20936 -12.5877,-4.10468 -33.65837,-25.17539 0,-12.58767 -10.39851,-2.18916 -25.17538,6.29384 -2.18916,8.48299 -16.96601,-2.18917 -29.28005,21.07071 0,10.39853 -23.25986,0 -8.20936,14.77683 -21.07069,8.48302 -6.29384,-6.29385 -29.553691,16.69237 -18.881528,-6.29384 -31.469215,10.67215 -14.776849,29.28006 8.483004,23.25985 10.398524,-2.18917 27.364536,12.5877 18.881528,18.88151 4.378326,21.07071 31.469205,27.36453 4.10468,29.28004 18.88153,8.48301 23.25985,31.46921 -4.10468,12.5877 10.39853,25.17536 14.77684,2.18916 6.29385,2.18917 -2.18916,10.39853 23.25985,12.58767 4.10468,33.6584 -10.39852,16.966 1.91551,12.58769 -8.483,1.91552 8.483,6.29384 4.37833,19.15517 -6.29384,6.29384 6.29384,4.10469 10.39852,25.17536 -4.10468,27.36453 10.39852,14.77686 8.48302,1.91551 4.10468,21.07068 10.3985,8.48301 8.48301,27.36453 16.96603,2.18917 12.58767,14.50321 10.39853,48.43527 67.31675,115.4783 12.58769,0 -2.18917,10.6721 14.77686,0 4.10469,14.7769 8.48298,-2.1892 -2.18916,12.5877 42.14138,29.2801 8.48302,14.7768 8.20936,50.62443 -10.39853,31.4692 16.96603,8.2094 16.69235,-1.9155 14.77685,16.6923 -2.18916,-12.5877 16.69235,12.5877 4.37833,35.8476 10.39853,12.5876 -8.20936,48.4353 14.50321,18.8815 25.17536,12.5877 27.36453,4.1047 18.88154,-18.8815 8.48301,2.1891 16.966,-12.5877 12.58769,8.2094 16.69235,-4.1047 14.77686,10.3985 10.39853,-14.5032 12.5877,1.9155 21.07068,-27.3645 65.12758,-22.9862 98.78599,-8.483 23.25984,16.966 16.69235,-21.0707 -6.29382,-10.6722 2.18917,-14.5032 18.88151,-2.1891 6.29385,-18.8815 12.58769,0 12.58767,-25.1754 12.58769,0 4.10469,-12.5877 16.96599,-10.6722 10.39867,-25.1753 25.1753,-4.1047 6.2939,-29.55373 21.0707,-16.6924 23.2598,-33.6584 18.8816,-6.2938 2.1891,-25.1754 27.0909,-16.966 6.2939,-21.0707 16.966,0 0,-14.5032 8.483,-6.2938 12.5877,4.1046 18.8815,-23.2598 -21.0707,-16.6924 8.483,-22.9862 10.3985,0 4.1047,-10.6722 -10.3985,-14.77678 8.483,-18.88154 -4.3784,-21.07068 10.6722,-12.58769 6.2939,-14.50321 -8.483,-16.966 37.763,-52.53992 4.3783,-25.17536 56.6446,-100.97513 0,-33.65837 56.6446,-58.83376 4.3783,-37.76306 -8.483,-27.36453 -8.483,-25.17539 -6.2938,-48.4352 12.5877,-10.39853 10.6721,-48.43523 31.4693,-18.88151 22.9862,-25.17537 6.5675,-2.18916 10.3985,-12.5877 22.9862,4.37833 31.7428,-27.36454 25.1754,-21.07069 12.5877,-21.070687 35.5739,-29.28005 18.8815,-29.5537 48.4353,-18.8815298 6.2938,-33.6583702 2.1891,-8.48301 22.9863,-39.67857 27.3645,-10.67217 -2.1892,-4.10468 16.9661,1.91552 4.1046,-8.20936 33.6584,-12.587693 -18.8815,16.692373 35.8475,-18.881533 22.9862,-27.36453 21.0707,-2.18916 10.3985,-14.50321 39.9523,-18.88151 31.4692,6.29382 10.6722,-29.5537 10.3985,-8.48298 21.0707,8.48298 -8.4831,-12.58766 4.3784,-27.36456 18.8815,-16.69235 0,-18.88154 -12.5877,-6.29385 1.9155,-16.966 -10.3985,-12.58769 -12.5877,-2.18917 -2.1891,-14.50318 6.2938,-4.37834 -60.7493,-21.07071 z"
     style="fill:none;stroke:#000000;stroke-width:20.40299606;stroke-linejoin:round"
     inkscape:export-filename="/home/icoloma/code/wedding/img/tenerife.png"
     inkscape:export-xdpi="236.02"
     inkscape:export-ydpi="236.02" />
  <path
     style="color:#000000;fill:#ffffd5;fill-opacity:1;fill-rule:nonzero;stroke:none;stroke-width:0.99999994;marker:none;visibility:visible;display:inline;overflow:visible;enable-background:accumulate"
     d="m 565.58316,1214.6574 c -19.86499,-3.9301 -37.30717,-16.9918 -37.45208,-28.0461 -0.0389,-2.9758 1.43991,-14.0479 3.28644,-24.6047 l 3.3574,-19.1939 -5.53014,-8.3567 c -3.66775,-5.5423 -6.27473,-13.6558 -7.74109,-24.0917 -3.02238,-21.5102 -3.14965,-21.7839 -13.51506,-29.0689 -12.28034,-8.6308 -28.52868,-14.4883 -35.4035,-12.7628 -3.02879,0.7601 -7.30428,0.8122 -9.50106,0.1146 -3.86873,-1.2279 -3.86269,-1.6499 0.19203,-13.4346 4.16376,-12.1023 4.16171,-12.3179 -0.38115,-40.4823 -5.92833,-36.75393 -9.26182,-42.53843 -34.6263,-60.08643 -17.75757,-12.2851 -19.25795,-13.8887 -19.25795,-20.5814 0,-5.5525 -1.21544,-7.812 -5.17204,-9.6148 -2.84464,-1.296 -6.23251,-4.684 -7.52862,-7.5285 -1.29608,-2.8446 -3.78306,-5.1721 -5.52664,-5.1721 -1.74356,0 -4.70442,-2.1913 -6.57971,-4.8696 -1.87528,-2.6784 -6.55668,-5.9202 -10.40308,-7.2043 -5.95925,-1.9895 -9.79551,-7.1104 -25.94119,-34.6286 -43.77359,-74.6064 -42.94857,-72.9262 -48.55117,-98.8795 -4.37341,-20.25922 -6.42259,-25.59893 -12.81996,-33.40606 -4.20942,-5.13704 -10.21344,-9.85995 -13.42638,-10.56153 -3.19654,-0.69771 -6.81603,-1.56224 -8.04326,-1.92061 -1.22726,-0.35855 -3.95936,-6.13334 -6.07135,-12.83344 -2.43547,-7.72611 -5.77527,-13.44984 -9.13112,-15.64869 -2.91014,-1.90683 -5.29659,-5.05919 -5.30324,-7.00544 -0.007,-1.94625 -1.04669,-7.26461 -2.31124,-11.81855 -1.71738,-6.18462 -3.8826,-8.83184 -8.55664,-10.46121 -7.82184,-2.72669 -9.37085,-7.48493 -7.54843,-23.18708 1.18778,-10.23389 0.51322,-14.84311 -3.85768,-26.35864 -5.10866,-13.45924 -10.18687,-39.08974 -10.17013,-51.33008 0.004,-3.25137 2.06737,-9.28961 4.58426,-13.41828 4.01221,-6.58157 4.40167,-9.51556 3.16028,-23.80714 -2.10993,-24.29066 -4.19764,-29.02909 -15.41077,-34.97763 -6.73303,-3.57183 -9.65614,-6.4963 -9.65614,-9.66044 0,-6.203 -6.56202,-11.63382 -15.88511,-13.14673 -6.36396,-1.03278 -8.18247,-2.52555 -10.07973,-8.2743 -1.27319,-3.85775 -1.72075,-10.79709 -0.99457,-15.42059 1.22579,-7.80469 0.33711,-9.72343 -12.41306,-26.80292 -9.14008,-12.24338 -16.38757,-19.64674 -21.66907,-22.13493 -7.08749,-3.33903 -8.08578,-4.8427 -9.33971,-14.06788 -2.21057,-16.26297 -2.50387,-16.74664 -19.23619,-31.722 -13.535103,-12.11392 -16.069224,-15.50525 -17.289834,-23.13856 -2.186163,-13.67149 -20.360614,-31.66102 -40.73016,-40.31579 -8.671396,-3.68434 -17.470551,-7.25339 -19.553675,-7.93119 -5.049062,-1.64284 -4.776365,-7.87419 0.851527,-19.45807 4.179844,-8.60338 5.873757,-9.92235 17.113258,-13.32542 10.05923,-3.04569 13.832685,-3.30332 19.491074,-1.33079 10.363887,3.61286 13.734088,3.09672 25.647963,-3.92797 8.205657,-4.83821 12.537417,-6.09376 17.978087,-5.21086 9.28867,1.50734 30.26758,-7.5632 35.31722,-15.2699 2.73355,-4.17194 5.51681,-5.60948 10.86066,-5.60948 11.69679,0 18.23536,-3.52231 19.64773,-10.58415 0.85269,-4.26361 4.54303,-8.68671 11.31554,-13.5625 8.22685,-5.92285 11.66038,-7.10691 18.92608,-6.52675 8.35187,0.66686 14.15965,-2.16647 16.36117,-7.98189 0.40391,-1.06684 3.72541,-2.58426 7.38121,-3.37202 5.67115,-1.22206 7.00522,-0.64592 9.08777,3.92481 3.80946,8.36087 38.66727,33.59687 48.60041,35.18526 7.45816,1.19259 9.01245,2.57645 13.93876,12.41012 7.13061,14.23375 11.11403,18.64283 16.84303,18.64283 2.54549,0 15.57437,-4.39993 28.95307,-9.77762 18.95998,-7.62112 25.23268,-9.29181 28.44055,-7.57499 6.10578,3.2677 13.27488,2.67663 17.85955,-1.47247 3.82402,-3.46067 4.65472,-3.44146 14.23829,0.32934 20.13249,7.92133 23.56688,7.31873 40.44007,-7.0957 l 15.11277,-12.91048 4.9132,5.30146 c 4.11503,4.44017 6.58236,5.19433 15.18727,4.64206 9.63879,-0.61865 10.67548,-1.29341 16.76687,-10.91344 4.64176,-7.3306 7.41842,-9.82256 9.7393,-8.74064 1.78554,0.83236 11.31549,1.86697 21.17768,2.29915 16.25788,0.71242 18.84368,0.251 27.70821,-4.94393 5.3773,-3.15133 10.67013,-8.07892 11.76178,-10.95023 1.78567,-4.69662 2.91457,-5.09909 11.24895,-4.01023 15.52882,2.02875 36.31766,-7.56522 36.31766,-16.76052 0,-2.49873 1.61993,-4.05098 4.32857,-4.14772 21.94916,-0.78393 24.05897,-0.41393 29.97727,5.25612 6.73291,6.45052 11.76921,7.06814 22.12608,2.71343 6.65516,-2.79829 7.72726,-2.62467 15.48183,2.50702 7.95318,5.2632 9.06992,5.41992 24.59438,3.45161 10.38414,-1.31659 26.50728,-1.29992 44.60281,0.046 l 28.33991,2.10805 4.55135,-5.25851 c 3.28982,-3.80101 6.29576,-5.05956 10.84495,-4.54072 10.74339,1.22533 19.89307,-1.61332 29.94899,-9.29155 6.8049,-5.19596 11.80555,-7.32579 16.86271,-7.18199 5.68813,0.16172 8.57656,-1.40585 13.83473,-7.50823 3.99393,-4.63516 9.49883,-8.30414 13.79614,-9.1951 4.00985,-0.83134 11.13933,-5.35254 16.23214,-10.29371 10.26303,-9.95742 9.96395,-9.92093 56.72601,-6.92132 l 23.83722,1.52907 25.94138,-11.24974 c 14.26778,-6.187367 26.98898,-12.398477 28.26938,-13.802487 1.2803,-1.404 5.0967,-9.37023 8.4807,-17.70273 3.3841,-8.3325 6.3844,-15.46447 6.6673,-15.84885 0.283,-0.3843 4.2581,0.3366 8.8336,1.60218 7.6358,2.11202 9.8299,1.58144 26.7154,-6.46046 20.3995,-9.71542 30.8227,-20.8116 31.2555,-33.27334 0.3188,-9.1722198 7.9574,-17.3070998 14.6699,-15.62236978 12.3764,3.10628998 17.844,-3.10963002 20.7782,-23.62194022 1.5565,-10.8814 2.649,-11.96303 18.1279,-17.94571 4.3034,-1.66332 6.2155,-4.28315 7.2843,-9.98067 1.272,-6.78047 3.3379,-8.82073 16.89,-16.68076 8.4924,-4.92545 16.4146,-10.50269 17.6049,-12.39387 4.2352,-6.72856 14.0679,-33.750253 14.0679,-38.660543 0,-2.74588 2,-7.69754 4.4443,-11.00371 2.761,-3.73459 4.9087,-10.87357 5.6707,-18.84986 1.1298,-11.82748 2.1008,-13.74525 12.3289,-24.34991 6.1064,-6.33118 17.1953,-14.94007 24.6421,-19.13089 13.6691,-7.69259 20.0069,-14.08393 20.0069,-20.17621 0,-1.82772 6.1385,-7.48585 13.6412,-12.57364 l 13.6411,-9.25047 19.9171,2.25623 c 19.081,2.16153 20.4843,2.02288 33.432,-3.30367 7.4332,-3.05798 15.6278,-7.90083 18.2103,-10.76194 3.1795,-3.52253 11.215,-7.02291 24.8893,-10.84201 11.1067,-3.10201 21.5188,-6.93336 23.138,-8.51413 1.6194,-1.58073 4.7003,-11.46877 6.8469,-21.97337 2.8554,-13.97399 5.1788,-20.13265 8.6581,-22.95003 6.5738,-5.32311 7.8911,-4.92599 11.9362,3.59824 4.1776,8.80376 9.39,10.19105 21.805,5.80344 8.3063,-2.93556 9.3984,-2.84172 16.2563,1.39662 12.3566,7.63682 18.056,9.12656 23.7904,6.21843 2.8357,-1.43818 8.0777,-2.81745 11.6487,-3.06507 4.0105,-0.27806 8.2478,-2.6125 11.0828,-6.10571 4.0999,-5.05161 5.1343,-5.36414 9.6884,-2.92689 10.2949,5.50968 18.6937,6.15496 23.3727,1.79576 4.2912,-3.99785 4.5675,-3.95156 15.744,2.63832 11.8883,7.00961 16.9351,7.70557 38.0814,5.25126 11.5353,-1.33879 14.1873,-0.7451 32.8713,7.35858 11.1781,4.84818 22.7069,8.81487 25.6197,8.81487 6.5886,0 95.0825,-27.44084 101.3262,-31.41995 2.5109,-1.60013 9.1442,-6.87238 14.7406,-11.7161 7.114,-6.15714 12.1647,-8.80679 16.7873,-8.80679 3.6365,0 11.1252,-1.5521 16.6416,-3.44916 9.9063,-3.40667 10.2826,-3.36007 30.5752,3.78752 15.8769,5.59216 20.6912,8.22026 21.1861,11.5652 2.2323,15.08624 6.1246,20.56072 14.6183,20.56072 5.9683,0 10.5327,6.82906 8.6112,12.8834 -2.0636,6.50172 0.9521,14.46846 6.6253,17.5049 7.3961,3.95825 6.5951,7.33601 -4.2221,17.80347 -8.3439,8.07402 -9.6472,10.63934 -10.9772,21.60645 -1.1738,9.67853 -2.3272,12.44463 -5.189,12.44463 -7.5251,0 -19.505,12.70075 -23.282,24.68299 l -3.6307,11.51782 -7.8141,-1.81664 c -14.7433,-3.42753 -21.727,-2.05201 -44.1966,8.70507 -15.2024,7.27798 -23.1343,12.38245 -25.1795,16.20412 -2.3413,4.37475 -5.1865,5.87109 -13.1794,6.93139 -12.3165,1.63382 -11.3038,0.93563 -25.5845,17.64131 -9.679,11.32274 -12.6825,13.52678 -18.4323,13.52678 -7.1104,0 -38.9632,11.33227 -44.2983,15.76002 -1.6658,1.38249 -6.3431,2.62871 -10.394,2.76938 -4.0509,0.14067 -8.5607,1.84094 -10.0217,3.778363 -1.461,1.93743 -6.5521,5.11222 -11.3135,7.0551 -12.4011,5.06018 -15.1348,8.08846 -28.3152,31.36701 -8.9031,15.72414 -12.5953,24.97644 -15.016,37.62818 -1.7655,9.22736 -3.6714,17.5236202 -4.2354,18.4361202 -0.5639,0.91255 -10.9352,5.37628 -23.0472,9.91951 l -22.0219,8.2603798 -9.994,15.59874 c -6.8845,10.74527 -15.6035,20.26772 -28.0226,30.60445 -10.0581,8.37176 -21.0436,19.83206 -24.8488,25.92269 -3.7512,6.00433 -13.6379,16.590167 -21.9704,23.524077 -8.3324,6.93392 -19.3619,16.403 -24.51,21.04241 -9.2167,8.30613 -9.5523,8.41296 -21.9201,6.97752 -14.1574,-1.64315 -8.4315,-5.42439 -46.6341,30.79601 -8.3325,7.90016 -21.4806,18.32223 -29.2178,23.16017 l -14.0679,8.79626 -5.4739,24.35079 c -4.2469,18.89237 -6.5476,25.10281 -10.2637,27.70564 -2.6343,1.84516 -5.7687,5.18423 -6.9654,7.42015 -3.6627,6.844 3.5912,51.92378 13.1406,81.66215 8.2373,25.65241 8.4219,26.89648 6.2603,42.20357 l -2.2272,15.77194 -18.9983,19.4786 c -38.2126,39.17869 -37.1546,37.56711 -37.1546,56.59108 l 0,16.64848 -28.1888,50.3827 c -21.4457,38.33042 -28.7399,53.36378 -30.4926,62.84429 -1.9261,10.41955 -5.3399,16.68883 -20.8319,38.25658 -19.4381,27.06159 -20.9748,31.41223 -15.5916,44.1431 2.7038,6.39435 2.5496,7.49712 -1.8165,12.98575 -10.0017,12.57314 -11.4971,17.07203 -9.1522,27.53539 1.741,7.76861 1.4755,11.5376 -1.3017,18.47857 -3.3118,8.27716 -3.292,16.31517 0.061,24.08703 1.0337,2.397 0.232,3.8373 -2.5381,4.5618 -2.594,0.6783 -5.7485,5.7206 -8.7795,14.0334 -6.5368,17.9278 -6.1352,22.7523 2.5264,30.3574 6.1057,5.3608 6.8406,6.9418 4.6311,9.9634 -1.5959,2.1826 -5.6516,3.5916 -10.3376,3.5916 -8.9414,0 -21.0293,8.8191 -21.0293,15.3424 0,2.5207 -1.5025,4.1362 -3.847,4.1362 -6.7869,0 -12.7824,6.0558 -15.4585,15.6142 -2.2273,7.9549 -4.4754,10.4713 -15.4808,17.328 -13.5062,8.4147 -17.1565,14.0625 -17.1565,26.5445 0,6.23 -0.8795,7.4554 -6.1887,8.6215 -7.2783,1.5986 -13.757,8.181 -25.8129,26.226 -4.8408,7.2454 -11.1557,14.7161 -14.0332,16.6015 -8.7052,5.7039 -18.893,16.8646 -18.9059,20.7111 -0.01,1.9916 -0.9929,7.1507 -2.1908,11.4648 -1.9462,7.00683 -3.1284,7.99553 -11.0803,9.26713 -13.1222,2.0982 -15.49613,4.0445 -20.26336,16.6124 -3.20744,8.4559 -6.70633,13.0985 -13.5092,17.9252 -5.04938,3.5825 -9.71967,8.2119 -10.37848,10.2875 -0.65879,2.0756 -4.1298,4.4178 -7.7134,5.2049 -5.17955,1.1377 -7.6928,3.8313 -12.25633,13.1362 -4.13452,8.4301 -6.97698,11.7143 -10.15948,11.7382 -6.488,0.051 -9.28273,2.4582 -12.90445,11.1262 -2.71442,6.4965 -4.82008,8.1585 -12.92189,10.1985 -5.97974,1.5058 -10.07686,3.8871 -10.71996,6.2308 -2.86122,10.4273 -3.47033,20.0406 -1.58418,25.0016 3.5066,9.2231 -1.79649,11.1247 -11.59046,4.1562 -9.57847,-6.8152 -8.50473,-6.7918 -70.4871,-1.5333 -38.3024,3.2495 -44.40424,4.3451 -66.01071,11.8524 -46.89569,16.2942 -46.8448,16.2682 -56.93961,29.2014 -8.05768,10.3232 -10.32739,11.9474 -16.69705,11.9474 -5.17222,0 -8.06735,1.2997 -9.70304,4.356 -1.94807,3.64 -3.0801,3.9553 -6.88591,1.9185 -2.50503,-1.3406 -8.65642,-1.9752 -13.66973,-1.4101 -5.41141,0.6098 -11.21867,-0.139 -14.29201,-1.8418 -7.82801,-4.3386 -14.83105,-3.6013 -22.6836,2.3881 -3.90159,2.9758 -9.88288,5.4107 -13.29182,5.4107 -4.37925,0 -8.67864,2.5403 -14.6515,8.6571 -4.64941,4.7614 -8.98626,8.5505 -9.63745,8.42 -0.65122,-0.1308 -5.23185,-1.038 -10.17928,-2.0168 l 0,0 z"
     id="path4278"
     inkscape:connector-curvature="0"
     inkscape:export-filename="/home/icoloma/code/wedding/img/tenerife.png"
     inkscape:export-xdpi="236.02"
     inkscape:export-ydpi="236.02" />
  <path
     style="fill:#d45500;stroke:#ffffff;stroke-width:4.08617067;stroke-miterlimit:4;stroke-opacity:1;stroke-dasharray:none"
     d="m 1154.7248,1190.8182 c -0.1817,-0.338 -0.3271,-1.017 -0.3229,-1.5089 0.01,-0.492 2.1312,-12.1164 4.7265,-25.8319 2.5952,-13.7156 4.6357,-24.9747 4.5344,-25.0203 -0.1011,-0.045 -2.6235,1.0011 -5.605,2.3259 -19.9749,8.8761 -32.7303,13.3317 -44.2379,15.4527 -4.9348,0.9095 -12.0992,0.9829 -14.8148,0.1516 -2.2876,-0.7002 -4.068,-1.7826 -4.9438,-3.0056 -1.1681,-1.6312 -13.1491,-28.7655 -13.1491,-29.7799 0,-1.9347 1.5943,-3.1732 4.5251,-3.5151 2.9527,-0.3444 3.7913,0.088 12.116,6.2498 8.163,6.042 10.1739,7.2794 11.8291,7.2794 0.6537,0 18.2577,-7.6467 49.3908,-21.454 26.6063,-11.7996 49.441,-21.8749 50.7438,-22.3895 10.7315,-4.2388 22.2584,-3.675 30.0542,1.4702 1.9754,1.3038 4.2793,3.9579 4.2793,4.9299 0,0.9437 -2.6174,3.5251 -5.7017,5.6233 -5.7275,3.8962 -19.2452,11.0517 -34.8732,18.4597 l -7.5079,3.5589 -11.0031,23.7229 c -6.0517,13.0476 -12.1279,26.0715 -13.5027,28.942 -2.6459,5.5247 -4.9839,8.9958 -7.3669,10.9375 -1.3544,1.1034 -7.4301,4.0157 -8.3779,4.0157 -0.2538,0 -0.6103,-0.2765 -0.7923,-0.6144 z m -27.3387,-83.2049 c -5.6292,-3.4326 -10.9776,-6.7002 -11.8853,-7.2611 -1.8059,-1.1162 -2.7568,-2.2785 -2.4706,-3.0201 0.202,-0.5232 6.0646,-3.2283 7.7657,-3.5832 1.6769,-0.3498 7.0828,-0.2461 8.8402,0.1695 1.4528,0.3436 31.8421,9.5134 32.025,9.6633 0.1718,0.1408 -23.1609,10.3363 -23.5851,10.3057 -0.2501,-0.018 -5.0607,-2.8415 -10.6899,-6.2741 z"
     id="path3382"
     inkscape:connector-curvature="0"
     sodipodi:nodetypes="ccscsssssssssssssscsssscscsssccs"
     inkscape:export-filename="/home/icoloma/code/wedding/img/tenerife.png"
     inkscape:export-xdpi="236.02"
     inkscape:export-ydpi="236.02" />
  <g
     style="font-size:72.13426208px;font-style:normal;font-variant:normal;font-weight:600;font-stretch:normal;line-height:125%;letter-spacing:0px;word-spacing:0px;fill:#4d4d4d;fill-opacity:1;stroke:none;font-family:Minion LT;-inkscape-font-specification:Minion LT Semi-Bold"
     id="text4174">
    <path
       d="m 1314.0349,1101.67 0,21.4148 -5.9877,0 0,-51.4942 14.124,0 c 6.3164,0 10.9774,1.2093 13.983,3.6278 3.0291,2.4186 4.5436,6.0582 4.5437,10.9188 -10e-5,6.8095 -3.4518,11.4119 -10.3553,13.8069 l 13.9831,23.1407 -7.0796,0 -12.4685,-21.4148 -10.7427,0 m 0,-5.1424 8.2067,0 c 4.2266,0 7.3261,-0.8336 9.2986,-2.5008 1.9724,-1.6906 2.9586,-4.2148 2.9586,-7.5726 0,-3.4048 -1.0097,-5.8586 -3.0291,-7.3614 -1.9959,-1.5028 -5.2128,-2.2541 -9.6507,-2.2542 l -7.7841,0 0,19.689"
       style="font-weight:normal;font-family:Open Sans;-inkscape-font-specification:Open Sans"
       id="path4474" />
    <path
       d="m 1368.1356,1123.7893 c -5.7059,0 -10.2143,-1.7376 -13.5251,-5.2129 -3.2874,-3.4752 -4.9311,-8.3005 -4.9311,-14.4761 0,-6.2225 1.5263,-11.1653 4.5788,-14.8284 3.0761,-3.663 7.197,-5.4946 12.3629,-5.4946 4.8371,0 8.6645,1.5968 11.4823,4.7902 2.8177,3.17 4.2266,7.3614 4.2266,12.5742 l 0,3.6982 -26.5924,0 c 0.1174,4.5319 1.2562,7.9719 3.4165,10.32 2.1837,2.3482 5.248,3.5222 9.1929,3.5222 4.1561,0 8.2653,-0.8688 12.3276,-2.6064 l 0,5.2128 c -2.0664,0.8923 -4.0271,1.5263 -5.882,1.902 -1.8316,0.3992 -4.0506,0.5988 -6.657,0.5988 m -1.5849,-35.1162 c -3.0996,10e-5 -5.5768,1.0098 -7.4318,3.0291 -1.8316,2.0194 -2.9117,4.8137 -3.2405,8.3828 l 20.1821,0 c 0,-3.6865 -0.8218,-6.5043 -2.4655,-8.4532 -1.6437,-1.9724 -3.9918,-2.9586 -7.0443,-2.9587"
       style="font-weight:normal;font-family:Open Sans;-inkscape-font-specification:Open Sans"
       id="path4476" />
    <path
       d="m 1398.1094,1123.0848 -5.8468,0 0,-38.6031 5.8468,0 0,38.6031 m -6.3399,-49.0639 c 0,-1.3384 0.3287,-2.3129 0.9862,-2.9234 0.6574,-0.634 1.4793,-0.951 2.4655,-0.951 0.9392,0 1.7493,0.317 2.4303,0.951 0.681,0.634 1.0214,1.6085 1.0214,2.9234 0,1.315 -0.3404,2.3012 -1.0214,2.9586 -0.681,0.634 -1.4911,0.951 -2.4303,0.951 -0.9862,0 -1.8081,-0.317 -2.4655,-0.951 -0.6575,-0.6574 -0.9862,-1.6436 -0.9862,-2.9586"
       style="font-weight:normal;font-family:Open Sans;-inkscape-font-specification:Open Sans"
       id="path4478" />
    <path
       d="m 1436.9943,1123.0848 0,-24.9722 c -10e-5,-3.1465 -0.7162,-5.4946 -2.1486,-7.0444 -1.4323,-1.5497 -3.6748,-2.3246 -6.7273,-2.3246 -4.0388,0 -6.9974,1.0919 -8.8759,3.2756 -1.8785,2.1838 -2.8178,5.7881 -2.8178,10.8131 l 0,20.2525 -5.8468,0 0,-38.6031 4.755,0 0.9509,5.2833 0.2818,0 c 1.1975,-1.9019 2.8765,-3.3695 5.0367,-4.4027 2.1603,-1.0566 4.5671,-1.585 7.2205,-1.585 4.6493,0 8.148,1.1271 10.4961,3.3813 2.3481,2.2307 3.5222,5.8116 3.5222,10.7426 l 0,25.1836 -5.8468,0"
       style="font-weight:normal;font-family:Open Sans;-inkscape-font-specification:Open Sans"
       id="path4480" />
    <path
       d="m 1478.556,1123.0848 -1.1623,-5.4946 -0.2818,0 c -1.9255,2.4186 -3.8509,4.0623 -5.7764,4.9311 -1.902,0.8453 -4.2853,1.268 -7.15,1.268 -3.8274,0 -6.833,-0.9862 -9.0168,-2.9587 -2.1603,-1.9724 -3.2404,-4.7784 -3.2404,-8.418 0,-7.7957 6.2343,-11.8814 18.7028,-12.2572 l 6.5512,-0.2113 0,-2.3951 c 0,-3.029 -0.6575,-5.2597 -1.9724,-6.6921 -1.2915,-1.4558 -3.3695,-2.1837 -6.2342,-2.1838 -3.217,10e-5 -6.8566,0.9863 -10.9188,2.9587 l -1.7963,-4.4732 c 1.902,-1.0331 3.98,-1.8432 6.2343,-2.4303 2.2776,-0.587 4.5553,-0.8805 6.833,-0.8806 4.6023,10e-5 8.007,1.0215 10.2143,3.0643 2.2307,2.0429 3.346,5.3186 3.3461,9.8269 l 0,26.3459 -4.3323,0 m -13.2082,-4.1209 c 3.6396,0 6.4926,-0.998 8.5589,-2.9939 2.0898,-1.9959 3.1347,-4.7901 3.1348,-8.3828 l 0,-3.4869 -5.8469,0.2465 c -4.6493,0.1644 -8.0071,0.8923 -10.0734,2.1838 -2.0429,1.268 -3.0643,3.2521 -3.0643,5.9525 0,2.1133 0.634,3.7218 1.902,4.8254 1.2914,1.1036 3.0877,1.6554 5.3889,1.6554"
       style="font-weight:normal;font-family:Open Sans;-inkscape-font-specification:Open Sans"
       id="path4482" />
    <path
       d="m 1543.6459,1109.3836 c 0,4.5318 -1.6437,8.0658 -4.931,10.6017 -3.2874,2.536 -7.7489,3.804 -13.3843,3.804 -6.1052,0 -10.8014,-0.7866 -14.0888,-2.3599 l 0,-5.7764 c 2.1133,0.8923 4.4145,1.5968 6.9035,2.1133 2.489,0.5166 4.9545,0.7749 7.3966,0.7749 3.9918,0 6.9974,-0.7514 9.0168,-2.2542 2.0193,-1.5262 3.029,-3.6395 3.0291,-6.3399 -10e-5,-1.7846 -0.364,-3.2404 -1.0919,-4.3675 -0.7045,-1.1506 -1.902,-2.2072 -3.5926,-3.17 -1.6672,-0.9627 -4.2149,-2.0545 -7.6432,-3.2756 -4.7902,-1.7141 -8.2184,-3.7452 -10.2847,-6.0934 -2.0429,-2.3481 -3.0643,-5.4123 -3.0643,-9.1929 0,-3.9682 1.491,-7.1265 4.4731,-9.4746 2.9821,-2.3481 6.927,-3.5221 11.8346,-3.5222 5.1188,1e-4 9.8268,0.9393 14.1239,2.8177 l -1.8668,5.2129 c -4.2501,-1.7846 -8.3828,-2.6768 -12.398,-2.6769 -3.17,10e-5 -5.6473,0.681 -7.4318,2.0429 -1.7846,1.3619 -2.6769,3.2522 -2.6769,5.6707 0,1.7846 0.3287,3.2522 0.9862,4.4027 0.6575,1.1271 1.7611,2.1721 3.3109,3.1348 1.5732,0.9392 3.9683,1.9841 7.1852,3.1347 5.4007,1.9255 9.1107,3.9918 11.1301,6.199 2.0428,2.2073 3.0643,5.072 3.0643,8.5942"
       style="font-weight:normal;font-family:Open Sans;-inkscape-font-specification:Open Sans"
       id="path4484" />
    <path
       d="m 1586.6165,1103.7481 c 0,6.2929 -1.585,11.2123 -4.7549,14.7579 -3.17,3.5222 -7.5493,5.2833 -13.1378,5.2833 -3.4517,0 -6.516,-0.8101 -9.1929,-2.4303 -2.6768,-1.6202 -4.7432,-3.9449 -6.199,-6.9739 -1.4558,-3.0291 -2.1838,-6.5748 -2.1838,-10.637 0,-6.293 1.5733,-11.1888 4.7198,-14.6875 3.1464,-3.5222 7.5139,-5.2833 13.1025,-5.2833 5.4006,0 9.6859,1.7964 12.8559,5.3889 3.1934,3.5927 4.7902,8.4533 4.7902,14.5819 m -29.4102,0 c 0,4.931 0.9862,8.688 2.9586,11.2709 1.9724,2.583 4.8724,3.8744 8.6998,3.8744 3.8274,0 6.7274,-1.2797 8.6998,-3.8391 1.9959,-2.583 2.9938,-6.3517 2.9939,-11.3062 -10e-5,-4.9076 -0.998,-8.6293 -2.9939,-11.1653 -1.9724,-2.5595 -4.8959,-3.8392 -8.7702,-3.8392 -3.8275,0 -6.7157,1.2563 -8.6646,3.7687 -1.9489,2.5125 -2.9234,6.2578 -2.9234,11.2358"
       style="font-weight:normal;font-family:Open Sans;-inkscape-font-specification:Open Sans"
       id="path4486" />
    <path
       d="m 1614.2304,1089.0254 -9.8269,0 0,34.0594 -5.8468,0 0,-34.0594 -6.9035,0 0,-2.6417 6.9035,-2.1133 0,-2.1485 c 0,-9.4864 4.1444,-14.2296 12.4333,-14.2296 2.0429,0 4.4379,0.4109 7.1853,1.2327 l -1.5146,4.6845 c -2.2542,-0.7278 -4.1797,-1.0918 -5.7764,-1.0918 -2.2072,0 -3.8391,0.7397 -4.8958,2.2189 -1.0567,1.4559 -1.585,3.804 -1.585,7.0444 l 0,2.5007 9.8269,0 0,4.5437 m 12.8912,34.0594 -5.8468,0 0,-38.6031 5.8468,0 0,38.6031 m -6.3399,-49.0639 c -10e-5,-1.3384 0.3287,-2.3129 0.9862,-2.9234 0.6574,-0.634 1.4793,-0.951 2.4655,-0.951 0.9392,0 1.7493,0.317 2.4303,0.951 0.6809,0.634 1.0214,1.6085 1.0214,2.9234 0,1.315 -0.3405,2.3012 -1.0214,2.9586 -0.681,0.634 -1.4911,0.951 -2.4303,0.951 -0.9862,0 -1.8081,-0.317 -2.4655,-0.951 -0.6575,-0.6574 -0.9863,-1.6436 -0.9862,-2.9586"
       style="font-weight:normal;font-family:Open Sans;-inkscape-font-specification:Open Sans"
       id="path4488" />
    <path
       d="m 1663.2592,1123.0848 -1.1624,-5.4946 -0.2817,0 c -1.9255,2.4186 -3.851,4.0623 -5.7764,4.9311 -1.902,0.8453 -4.2854,1.268 -7.15,1.268 -3.8275,0 -6.8331,-0.9862 -9.0168,-2.9587 -2.1603,-1.9724 -3.2404,-4.7784 -3.2404,-8.418 0,-7.7957 6.2342,-11.8814 18.7027,-12.2572 l 6.5513,-0.2113 0,-2.3951 c 0,-3.029 -0.6575,-5.2597 -1.9724,-6.6921 -1.2915,-1.4558 -3.3696,-2.1837 -6.2343,-2.1838 -3.2169,10e-5 -6.8565,0.9863 -10.9187,2.9587 l -1.7964,-4.4732 c 1.902,-1.0331 3.9801,-1.8432 6.2343,-2.4303 2.2777,-0.587 4.5553,-0.8805 6.833,-0.8806 4.6023,10e-5 8.0071,1.0215 10.2144,3.0643 2.2306,2.0429 3.346,5.3186 3.346,9.8269 l 0,26.3459 -4.3322,0 m -13.2082,-4.1209 c 3.6395,0 6.4925,-0.998 8.5589,-2.9939 2.0898,-1.9959 3.1347,-4.7901 3.1347,-8.3828 l 0,-3.4869 -5.8468,0.2465 c -4.6493,0.1644 -8.0071,0.8923 -10.0734,2.1838 -2.0429,1.268 -3.0643,3.2521 -3.0643,5.9525 0,2.1133 0.6339,3.7218 1.9019,4.8254 1.2915,1.1036 3.0878,1.6554 5.389,1.6554"
       style="font-weight:normal;font-family:Open Sans;-inkscape-font-specification:Open Sans"
       id="path4490" />
    <path
       d="m 1340.4161,1213.2527 -6.4104,-16.3782 -20.64,0 -6.3399,16.3782 -6.0581,0 20.3582,-51.7056 5.0367,0 20.2525,51.7056 -6.199,0 m -8.2771,-21.7671 -5.9878,-15.9555 c -0.7749,-2.0193 -1.5732,-4.4966 -2.395,-7.4318 -0.5166,2.2542 -1.2563,4.7315 -2.219,7.4318 l -6.0582,15.9555 16.66,0"
       style="font-weight:normal;font-family:Open Sans;-inkscape-font-specification:Open Sans"
       id="path4492" />
    <path
       d="m 1358.661,1213.2527 -5.8468,0 0,-38.6031 5.8468,0 0,38.6031 m -6.34,-49.064 c 0,-1.3384 0.3288,-2.3129 0.9863,-2.9234 0.6574,-0.634 1.4793,-0.951 2.4655,-0.951 0.9392,0 1.7493,0.317 2.4303,0.951 0.6809,0.634 1.0214,1.6085 1.0214,2.9234 0,1.315 -0.3405,2.3012 -1.0214,2.9586 -0.681,0.6341 -1.4911,0.9511 -2.4303,0.951 -0.9862,10e-5 -1.8081,-0.3169 -2.4655,-0.951 -0.6575,-0.6574 -0.9863,-1.6436 -0.9863,-2.9586"
       style="font-weight:normal;font-family:Open Sans;-inkscape-font-specification:Open Sans"
       id="path4494" />
    <path
       d="m 1388.7404,1173.9451 c 1.7141,1e-4 3.2521,0.141 4.614,0.4227 l -0.8101,5.4241 c -1.5967,-0.3521 -3.0056,-0.5282 -4.2266,-0.5283 -3.123,10e-5 -5.7998,1.268 -8.0305,3.804 -2.2073,2.536 -3.3109,5.6942 -3.3109,9.4746 l 0,20.7105 -5.8468,0 0,-38.6031 4.8254,0 0.6692,7.15 0.2818,0 c 1.4323,-2.5125 3.1582,-4.4497 5.1776,-5.8116 2.0193,-1.3619 4.2383,-2.0428 6.6569,-2.0429"
       style="font-weight:normal;font-family:Open Sans;-inkscape-font-specification:Open Sans"
       id="path4496" />
    <path
       d="m 1418.538,1213.9571 c -2.5125,0 -4.8136,-0.4579 -6.9034,-1.3736 -2.0664,-0.9393 -3.804,-2.3716 -5.2129,-4.2971 l -0.4226,0 c 0.2817,2.2542 0.4226,4.391 0.4226,6.4104 l 0,15.885 -5.8468,0 0,-55.9322 4.755,0 0.8101,5.2832 0.2817,0 c 1.5028,-2.1132 3.2522,-3.6395 5.2481,-4.5788 1.9959,-0.9392 4.2853,-1.4088 6.8682,-1.4089 5.1189,1e-4 9.0638,1.7494 11.8346,5.2481 2.7942,3.4987 4.1913,8.4063 4.1914,14.7227 -10e-5,6.3399 -1.4207,11.271 -4.2619,14.7932 -2.8177,3.4987 -6.7391,5.248 -11.7641,5.248 m -0.8453,-35.0457 c -3.9448,0 -6.7978,1.0919 -8.5589,3.2756 -1.7611,2.1838 -2.6651,5.659 -2.7121,10.4257 l 0,1.3032 c 0,5.4242 0.9041,9.3103 2.7121,11.6584 1.8081,2.3247 4.708,3.487 8.6998,3.487 3.3343,0 5.9407,-1.3502 7.8193,-4.0505 1.9019,-2.7004 2.8529,-6.4221 2.8529,-11.1653 0,-4.8137 -0.951,-8.5002 -2.8529,-11.0597 -1.8786,-2.5829 -4.5319,-3.8744 -7.9602,-3.8744"
       style="font-weight:normal;font-family:Open Sans;-inkscape-font-specification:Open Sans"
       id="path4498" />
    <path
       d="m 1478.1333,1193.9159 c 0,6.293 -1.585,11.2123 -4.7549,14.7579 -3.17,3.5222 -7.5492,5.2833 -13.1377,5.2833 -3.4518,0 -6.5161,-0.8101 -9.1929,-2.4303 -2.6769,-1.6202 -4.7432,-3.9448 -6.1991,-6.9739 -1.4558,-3.0291 -2.1837,-6.5747 -2.1837,-10.637 0,-6.2929 1.5732,-11.1888 4.7197,-14.6875 3.1465,-3.5221 7.514,-5.2832 13.1025,-5.2833 5.4007,1e-4 9.686,1.7964 12.856,5.389 3.1934,3.5926 4.7901,8.4532 4.7901,14.5818 m -29.4102,0 c 0,4.9311 0.9862,8.6881 2.9587,11.271 1.9724,2.5829 4.8723,3.8744 8.6997,3.8744 3.8275,0 6.7274,-1.2797 8.6998,-3.8392 1.9959,-2.5829 2.9939,-6.3517 2.9939,-11.3062 0,-4.9076 -0.998,-8.6293 -2.9939,-11.1653 -1.9724,-2.5594 -4.8958,-3.8392 -8.7702,-3.8392 -3.8274,0 -6.7156,1.2563 -8.6646,3.7687 -1.9489,2.5126 -2.9234,6.2578 -2.9234,11.2358"
       style="font-weight:normal;font-family:Open Sans;-inkscape-font-specification:Open Sans"
       id="path4500" />
    <path
       d="m 1505.9586,1173.9451 c 1.7141,1e-4 3.2521,0.141 4.614,0.4227 l -0.8101,5.4241 c -1.5967,-0.3521 -3.0056,-0.5282 -4.2266,-0.5283 -3.123,10e-5 -5.7999,1.268 -8.0306,3.804 -2.2072,2.536 -3.3108,5.6942 -3.3108,9.4746 l 0,20.7105 -5.8468,0 0,-38.6031 4.8253,0 0.6693,7.15 0.2817,0 c 1.4324,-2.5125 3.1582,-4.4497 5.1776,-5.8116 2.0194,-1.3619 4.2384,-2.0428 6.657,-2.0429"
       style="font-weight:normal;font-family:Open Sans;-inkscape-font-specification:Open Sans"
       id="path4502" />
    <path
       d="m 1530.2616,1209.1317 c 1.0332,0 2.0311,-0.07 2.9939,-0.2113 0.9627,-0.1644 1.7258,-0.3287 2.2894,-0.4931 l 0,4.4731 c -0.634,0.3053 -1.5733,0.5519 -2.8178,0.7397 -1.221,0.2113 -2.3246,0.317 -3.3108,0.317 -7.467,0 -11.2006,-3.9331 -11.2005,-11.7993 l 0,-22.9646 -5.5299,0 0,-2.8178 5.5299,-2.4303 2.4655,-8.2419 3.3813,0 0,8.9464 11.2005,0 0,4.5436 -11.2005,0 0,22.718 c 0,2.3247 0.5518,4.1093 1.6554,5.3538 1.1036,1.2445 2.6181,1.8667 4.5436,1.8667"
       style="font-weight:normal;font-family:Open Sans;-inkscape-font-specification:Open Sans"
       id="path4504" />
    <path
       d="m 1558.7208,1193.4932 c 0,-6.2225 0.9041,-12.0458 2.7121,-17.47 1.8315,-5.4241 4.4614,-10.179 7.8897,-14.2648 l 5.7059,0 c -3.3813,4.5319 -5.929,9.5099 -7.6431,14.934 -1.6907,5.4242 -2.536,11.001 -2.536,16.7304 0,5.6355 0.8688,11.1418 2.6064,16.519 1.7376,5.3772 4.2384,10.2848 7.5023,14.7227 l -5.6355,0 c -3.4518,-3.9918 -6.0816,-8.6528 -7.8897,-13.983 -1.808,-5.3303 -2.7121,-11.0597 -2.7121,-17.1883"
       style="font-weight:normal;font-family:Open Sans;-inkscape-font-specification:Open Sans"
       id="path4506" />
    <path
       d="m 1600.1769,1213.2527 -5.9877,0 0,-46.1758 -16.3077,0 0,-5.3185 38.6031,0 0,5.3185 -16.3077,0 0,46.1758"
       style="font-weight:normal;font-family:Open Sans;-inkscape-font-specification:Open Sans"
       id="path4508" />
    <path
       d="m 1630.1859,1213.2527 -5.9877,0 0,-51.4943 28.7057,0 0,5.3185 -22.718,0 0,18.8436 21.3444,0 0,5.3185 -21.3444,0 0,22.0137"
       style="font-weight:normal;font-family:Open Sans;-inkscape-font-specification:Open Sans"
       id="path4510" />
    <path
       d="m 1690.4504,1199.5514 c 0,4.5319 -1.6437,8.0658 -4.931,10.6017 -3.2874,2.536 -7.7489,3.804 -13.3843,3.804 -6.1052,0 -10.8014,-0.7866 -14.0888,-2.3599 l 0,-5.7763 c 2.1133,0.8923 4.4145,1.5967 6.9035,2.1133 2.489,0.5166 4.9545,0.7749 7.3966,0.7749 3.9918,0 6.9974,-0.7514 9.0168,-2.2542 2.0193,-1.5263 3.029,-3.6396 3.0291,-6.34 -10e-5,-1.7845 -0.364,-3.2404 -1.0919,-4.3675 -0.7045,-1.1505 -1.902,-2.2072 -3.5926,-3.1699 -1.6672,-0.9627 -4.2149,-2.0546 -7.6432,-3.2757 -4.7902,-1.7141 -8.2184,-3.7452 -10.2847,-6.0933 -2.0429,-2.3481 -3.0643,-5.4124 -3.0643,-9.1929 0,-3.9683 1.491,-7.1265 4.4731,-9.4747 2.9821,-2.3481 6.927,-3.5221 11.8346,-3.5222 5.1188,10e-5 9.8268,0.9393 14.1239,2.8178 l -1.8668,5.2128 c -4.2501,-1.7845 -8.3828,-2.6768 -12.398,-2.6769 -3.17,10e-5 -5.6473,0.681 -7.4318,2.0429 -1.7846,1.362 -2.6769,3.2522 -2.6769,5.6707 0,1.7846 0.3287,3.2522 0.9862,4.4027 0.6575,1.1272 1.7611,2.1721 3.3109,3.1348 1.5732,0.9393 3.9683,1.9842 7.1852,3.1347 5.4007,1.9255 9.1107,3.9919 11.1301,6.1991 2.0428,2.2072 3.0643,5.0719 3.0643,8.5941"
       style="font-weight:normal;font-family:Open Sans;-inkscape-font-specification:Open Sans"
       id="path4512" />
    <path
       d="m 1712.3584,1193.4932 c -10e-5,6.1756 -0.9158,11.9285 -2.7473,17.2587 -1.8081,5.3302 -4.4263,9.9678 -7.8545,13.9126 l -5.6355,0 c 3.2639,-4.4144 5.7646,-9.3103 7.5022,-14.6875 1.7376,-5.4006 2.6065,-10.9187 2.6065,-16.5542 0,-5.7294 -0.8571,-11.3062 -2.5712,-16.7304 -1.6907,-5.4241 -4.2267,-10.4021 -7.6079,-14.934 l 5.7059,0 c 3.4517,4.1092 6.0816,8.8877 7.8897,14.3353 1.808,5.4241 2.712,11.224 2.7121,17.3995"
       style="font-weight:normal;font-family:Open Sans;-inkscape-font-specification:Open Sans"
       id="path4514" />
  </g>
  <path
     transform="matrix(4.4692496,0,0,4.4692496,1022.6721,-843.76967)"
     style="color:#000000;fill:none;stroke:#d45500;stroke-width:3.19999981;stroke-linecap:butt;stroke-linejoin:bevel;stroke-miterlimit:4;stroke-dashoffset:0;stroke-opacity:1;marker:none;visibility:visible;display:inline;overflow:visible;enable-background:accumulate"
     d="m 98.94068,169.70338 c 0,2.10618 -1.707388,3.81356 -3.813559,3.81356 -2.106171,0 -3.813559,-1.70738 -3.813559,-3.81356 0,-2.10617 1.707388,-3.81355 3.813559,-3.81355 2.106171,0 3.813559,1.70738 3.813559,3.81355 z"
     id="path4172-6" />
  <path
     style="fill:none;stroke:#d45500;stroke-width:10.2154274;stroke-linecap:butt;stroke-linejoin:miter;stroke-miterlimit:4;stroke-opacity:1;stroke-dasharray:10.21542712, 10.21542712;stroke-dashoffset:0"
     d="M 1432.2991,-93.399127 1131.2451,-262.64912"
     id="path4178-9"
     inkscape:connector-curvature="0"
     sodipodi:nodetypes="cc"
     inkscape:export-filename="/home/icoloma/code/wedding/img/tenerife.png"
     inkscape:export-xdpi="236.02"
     inkscape:export-ydpi="236.02" />
  <path
     style="fill:#d45500;stroke:#ffffff;stroke-width:4.08617067;stroke-miterlimit:4;stroke-opacity:1;stroke-dasharray:none"
     d="m 1006.7953,-200.2415 c -0.1818,-0.33793 -0.3272,-1.01694 -0.3229,-1.50894 0.01,-0.49198 2.1312,-12.11632 4.7264,-25.83189 2.5953,-13.71558 4.6358,-24.97469 4.5345,-25.02027 -0.1011,-0.0455 -2.6236,1.00108 -5.605,2.32592 -19.97499,8.87611 -32.73044,13.3317 -44.23799,15.45267 -4.93482,0.90956 -12.09921,0.98293 -14.81487,0.15158 -2.28754,-0.70016 -4.06798,-1.7826 -4.94381,-3.00557 -1.16809,-1.63118 -13.1491,-28.76554 -13.1491,-29.7799 0,-1.93475 1.59438,-3.17325 4.52518,-3.51509 2.95271,-0.3444 3.79129,0.0883 12.11597,6.24979 8.16295,6.04195 10.17385,7.2794 11.82914,7.2794 0.65367,0 18.25762,-7.64667 49.39088,-21.45395 26.6063,-11.79969 49.441,-21.87498 50.7437,-22.38954 10.7316,-4.23884 22.2584,-3.67497 30.0542,1.47019 1.9755,1.30381 4.2793,3.95792 4.2793,4.92991 0,0.94365 -2.6173,3.52505 -5.7016,5.62324 -5.7275,3.89629 -19.2452,11.05178 -34.8732,18.45974 l -7.5079,3.5589 -11.0031,23.72293 c -6.0517,13.04762 -12.1279,26.07152 -13.5027,28.94201 -2.6459,5.52465 -4.9839,8.99574 -7.367,10.93742 -1.3543,1.10348 -7.4301,4.01579 -8.3779,4.01579 -0.2537,0 -0.6103,-0.27654 -0.7922,-0.61447 z m -27.33884,-83.20492 c -5.62923,-3.43263 -10.97761,-6.70015 -11.8853,-7.26111 -1.80592,-1.11616 -2.75679,-2.27851 -2.47061,-3.0201 0.20201,-0.52321 6.06464,-3.2283 7.76572,-3.58315 1.67689,-0.34983 7.0828,-0.24615 8.84017,0.16944 1.45281,0.34363 31.84226,9.5134 32.02516,9.66335 0.1718,0.1408 -23.16103,10.33632 -23.58523,10.30567 -0.25008,-0.0184 -5.06065,-2.84144 -10.68991,-6.27407 z"
     id="path3382-5"
     inkscape:connector-curvature="0"
     sodipodi:nodetypes="ccscsssssssssssssscsssscscsssccs"
     inkscape:export-filename="/home/icoloma/code/wedding/img/tenerife.png"
     inkscape:export-xdpi="236.02"
     inkscape:export-ydpi="236.02" />
  <g
     style="font-size:72.13426208px;font-style:normal;font-variant:normal;font-weight:600;font-stretch:normal;line-height:125%;letter-spacing:0px;word-spacing:0px;fill:#4d4d4d;fill-opacity:1;stroke:none;font-family:Minion LT;-inkscape-font-specification:Minion LT Semi-Bold"
     id="text4174-4">
    <path
       d="m 504.50025,-286.55688 0,-51.49429 5.98771,0 0,46.07013 22.71807,0 0,5.42416 -28.70578,0"
       style="font-weight:normal;text-align:end;text-anchor:end;font-family:Open Sans;-inkscape-font-specification:Open Sans"
       id="path4430" />
    <path
       d="m 574.41554,-305.89366 c -4e-5,6.29298 -1.58502,11.21229 -4.75494,14.75794 -3.17,3.52218 -7.54924,5.28327 -13.13774,5.28327 -3.45175,0 -6.51605,-0.8101 -9.19289,-2.4303 -2.67687,-1.6202 -4.74321,-3.94484 -6.19904,-6.97392 -1.45584,-3.02906 -2.18375,-6.57472 -2.18375,-10.63699 0,-6.29293 1.57324,-11.18876 4.71972,-14.68749 3.14647,-3.52214 7.51397,-5.28323 13.10252,-5.28327 5.40065,4e-5 9.68596,1.79635 12.85595,5.38893 3.19341,3.59266 4.79013,8.45326 4.79017,14.58183 m -29.41021,0 c -10e-6,4.93107 0.9862,8.68806 2.95863,11.27098 1.97241,2.58294 4.87234,3.8744 8.69979,3.8744 3.82741,0 6.72734,-1.27972 8.69979,-3.83918 1.99587,-2.58292 2.99382,-6.35165 2.99385,-11.3062 -3e-5,-4.90754 -0.99798,-8.62931 -2.99385,-11.16531 -1.97245,-2.55942 -4.89586,-3.83914 -8.77023,-3.83918 -3.82746,4e-5 -6.71564,1.25628 -8.66457,3.76874 -1.94895,2.51251 -2.92342,6.25776 -2.92341,11.23575"
       style="font-weight:normal;text-align:end;text-anchor:end;font-family:Open Sans;-inkscape-font-specification:Open Sans"
       id="path4432" />
    <path
       d="m 609.53168,-297.08821 c -3e-5,3.59264 -1.33846,6.36342 -4.01528,8.31235 -2.67689,1.94894 -6.43388,2.92341 -11.27098,2.92341 -5.11892,0 -9.11072,-0.8101 -11.97542,-2.4303 l 0,-5.42416 c 1.85501,0.93925 3.83917,1.67891 5.95249,2.21897 2.13678,0.54007 4.19138,0.81011 6.16381,0.8101 3.05254,1e-5 5.40066,-0.48136 7.04437,-1.44409 1.64366,-0.9862 2.4655,-2.47726 2.46552,-4.47317 -2e-5,-1.50279 -0.6575,-2.78251 -1.97242,-3.83918 -1.29149,-1.08012 -3.82745,-2.3481 -7.60791,-3.80395 -3.59264,-1.33841 -6.15208,-2.50073 -7.67835,-3.48696 -1.50281,-1.00967 -2.6299,-2.14851 -3.3813,-3.41652 -0.72792,-1.26796 -1.09188,-2.78249 -1.09187,-4.54361 -1e-5,-3.14645 1.27972,-5.62371 3.83917,-7.4318 2.55945,-1.8315 6.06988,-2.74726 10.53132,-2.7473 4.15616,4e-5 8.2184,0.84536 12.18675,2.53597 l -2.07809,4.75494 c -3.87442,-1.59669 -7.38486,-2.39505 -10.53132,-2.39508 -2.77079,3e-5 -4.86062,0.43444 -6.26948,1.30321 -1.40888,0.86883 -2.11332,2.06637 -2.11331,3.59262 -10e-6,1.0332 0.25829,1.91375 0.77488,2.64164 0.54006,0.72794 1.39712,1.42063 2.57119,2.07808 1.17405,0.6575 3.42824,1.60849 6.76259,2.85297 4.57881,1.66718 7.66659,3.34609 9.26334,5.03672 1.62017,1.69066 2.43027,3.81571 2.4303,6.37514"
       style="font-weight:normal;text-align:end;text-anchor:end;font-family:Open Sans;-inkscape-font-specification:Open Sans"
       id="path4434" />
    <path
       d="m 644.6126,-307.97174 0,21.41486 -5.98771,0 0,-51.49429 14.12394,0 c 6.31642,5e-5 10.97743,1.20933 13.98306,3.62785 3.02904,2.41861 4.54357,6.05819 4.54361,10.91876 -4e-5,6.80958 -3.45177,11.41189 -10.35521,13.80695 l 13.98306,23.14073 -7.07958,0 -12.46852,-21.41486 -10.74265,0 m 0,-5.14239 8.20668,0 c 4.22659,3e-5 7.3261,-0.83355 9.29855,-2.50075 1.97239,-1.69061 2.9586,-4.21484 2.95864,-7.57268 -4e-5,-3.40474 -1.00973,-5.85852 -3.02908,-7.36136 -1.99593,-1.50275 -5.21285,-2.25415 -9.65078,-2.2542 l -7.78401,0 0,19.68899"
       style="font-weight:normal;text-align:end;text-anchor:end;font-family:Open Sans;-inkscape-font-specification:Open Sans"
       id="path4436" />
    <path
       d="m 715.72543,-305.89366 c -4e-5,6.29298 -1.58502,11.21229 -4.75495,14.75794 -3.16999,3.52218 -7.54923,5.28327 -13.13773,5.28327 -3.45176,0 -6.51605,-0.8101 -9.19289,-2.4303 -2.67687,-1.6202 -4.74321,-3.94484 -6.19904,-6.97392 -1.45584,-3.02906 -2.18376,-6.57472 -2.18375,-10.63699 -10e-6,-6.29293 1.57323,-11.18876 4.71972,-14.68749 3.14647,-3.52214 7.51397,-5.28323 13.10251,-5.28327 5.40065,4e-5 9.68597,1.79635 12.85596,5.38893 3.19341,3.59266 4.79013,8.45326 4.79017,14.58183 m -29.41021,0 c -10e-6,4.93107 0.9862,8.68806 2.95863,11.27098 1.97241,2.58294 4.87233,3.8744 8.69979,3.8744 3.82741,0 6.72733,-1.27972 8.69978,-3.83918 1.99587,-2.58292 2.99382,-6.35165 2.99386,-11.3062 -4e-5,-4.90754 -0.99799,-8.62931 -2.99386,-11.16531 -1.97245,-2.55942 -4.89585,-3.83914 -8.77023,-3.83918 -3.82745,4e-5 -6.71564,1.25628 -8.66456,3.76874 -1.94895,2.51251 -2.92342,6.25776 -2.92341,11.23575"
       style="font-weight:normal;text-align:end;text-anchor:end;font-family:Open Sans;-inkscape-font-specification:Open Sans"
       id="path4438" />
    <path
       d="m 752.21522,-291.73449 -0.317,0 c -2.70037,3.92136 -6.73913,5.88204 -12.1163,5.88204 -5.04848,0 -8.98157,-1.72587 -11.79931,-5.1776 -2.79427,-3.45173 -4.1914,-8.3593 -4.19139,-14.72272 -10e-6,-6.36338 1.40886,-11.30617 4.22661,-14.82838 2.81774,-3.52214 6.73909,-5.28323 11.76409,-5.28327 5.23628,4e-5 9.25156,1.90201 12.04586,5.70593 l 0.45788,0 -0.24655,-2.78252 -0.14089,-2.71208 0,-15.70893 5.84682,0 0,54.80514 -4.75494,0 -0.77488,-5.17761 m -11.69364,0.98621 c 3.99178,0 6.87996,-1.08013 8.66456,-3.24041 1.80802,-2.18374 2.71205,-5.69418 2.71208,-10.53132 l 0,-1.23276 c -3e-5,-5.4711 -0.9158,-9.36897 -2.7473,-11.69364 -1.80808,-2.34809 -4.70801,-3.52215 -8.69979,-3.52218 -3.42827,3e-5 -6.05816,1.33846 -7.88968,4.01529 -1.80807,2.6534 -2.71209,6.41039 -2.71208,11.27097 -10e-6,4.93107 0.90401,8.65284 2.71208,11.16532 1.80803,2.51249 4.46141,3.76873 7.96013,3.76873"
       style="font-weight:normal;text-align:end;text-anchor:end;font-family:Open Sans;-inkscape-font-specification:Open Sans"
       id="path4440" />
    <path
       d="m 786.48603,-285.85245 c -5.70595,0 -10.21434,-1.73761 -13.52517,-5.21283 -3.28738,-3.47521 -4.93106,-8.30059 -4.93106,-14.47616 0,-6.22249 1.52628,-11.16528 4.57884,-14.82838 3.07602,-3.66303 7.19697,-5.49456 12.36285,-5.4946 4.8371,4e-5 8.66454,1.59676 11.48231,4.79016 2.81771,3.17 4.22658,7.36139 4.22662,12.57419 l 0,3.69829 -26.59247,0 c 0.1174,4.53189 1.25624,7.97188 3.41652,10.31999 2.18374,2.34812 5.24803,3.52218 9.19289,3.52218 4.15615,0 8.26535,-0.8688 12.32763,-2.60641 l 0,5.21282 c -2.06638,0.89229 -4.02705,1.52628 -5.88204,1.90198 -1.83156,0.39918 -4.05053,0.59877 -6.65692,0.59877 m -1.58498,-35.11614 c -3.09954,3e-5 -5.5768,1.00972 -7.4318,3.02907 -1.83155,2.01942 -2.91168,4.81368 -3.24041,8.38279 l 20.1821,0 c -3e-5,-3.68652 -0.82187,-6.50426 -2.46553,-8.45323 -1.64371,-1.97239 -3.99183,-2.9586 -7.04436,-2.95863"
       style="font-weight:normal;text-align:end;text-anchor:end;font-family:Open Sans;-inkscape-font-specification:Open Sans"
       id="path4442" />
    <path
       d="m 843.93279,-305.89366 c -3e-5,6.29298 -1.58501,11.21229 -4.75494,14.75794 -3.16999,3.52218 -7.54923,5.28327 -13.13773,5.28327 -3.45176,0 -6.51605,-0.8101 -9.1929,-2.4303 -2.67686,-1.6202 -4.74321,-3.94484 -6.19903,-6.97392 -1.45584,-3.02906 -2.18376,-6.57472 -2.18376,-10.63699 0,-6.29293 1.57324,-11.18876 4.71973,-14.68749 3.14647,-3.52214 7.51397,-5.28323 13.10251,-5.28327 5.40065,4e-5 9.68596,1.79635 12.85596,5.38893 3.1934,3.59266 4.79013,8.45326 4.79016,14.58183 m -29.4102,0 c -1e-5,4.93107 0.98619,8.68806 2.95863,11.27098 1.9724,2.58294 4.87233,3.8744 8.69978,3.8744 3.82741,0 6.72734,-1.27972 8.69979,-3.83918 1.99587,-2.58292 2.99382,-6.35165 2.99385,-11.3062 -3e-5,-4.90754 -0.99798,-8.62931 -2.99385,-11.16531 -1.97245,-2.55942 -4.89586,-3.83914 -8.77023,-3.83918 -3.82745,4e-5 -6.71564,1.25628 -8.66456,3.76874 -1.94896,2.51251 -2.92342,6.25776 -2.92341,11.23575"
       style="font-weight:normal;text-align:end;text-anchor:end;font-family:Open Sans;-inkscape-font-specification:Open Sans"
       id="path4444" />
    <path
       d="m 879.04896,-297.08821 c -3e-5,3.59264 -1.33846,6.36342 -4.01528,8.31235 -2.67689,1.94894 -6.43387,2.92341 -11.27098,2.92341 -5.11892,0 -9.11072,-0.8101 -11.97542,-2.4303 l 0,-5.42416 c 1.85501,0.93925 3.83917,1.67891 5.95249,2.21897 2.13678,0.54007 4.19138,0.81011 6.16382,0.8101 3.05253,1e-5 5.40065,-0.48136 7.04436,-1.44409 1.64366,-0.9862 2.4655,-2.47726 2.46552,-4.47317 -2e-5,-1.50279 -0.6575,-2.78251 -1.97242,-3.83918 -1.29149,-1.08012 -3.82745,-2.3481 -7.60791,-3.80395 -3.59264,-1.33841 -6.15208,-2.50073 -7.67835,-3.48696 -1.50281,-1.00967 -2.6299,-2.14851 -3.3813,-3.41652 -0.72792,-1.26796 -1.09188,-2.78249 -1.09187,-4.54361 -10e-6,-3.14645 1.27972,-5.62371 3.83917,-7.4318 2.55945,-1.8315 6.06988,-2.74726 10.53133,-2.7473 4.15615,4e-5 8.21839,0.84536 12.18674,2.53597 l -2.07809,4.75494 c -3.87442,-1.59669 -7.38486,-2.39505 -10.53132,-2.39508 -2.77079,3e-5 -4.86062,0.43444 -6.26948,1.30321 -1.40888,0.86883 -2.11332,2.06637 -2.11331,3.59262 -10e-6,1.0332 0.25829,1.91375 0.77488,2.64164 0.54006,0.72794 1.39712,1.42063 2.5712,2.07808 1.17404,0.6575 3.42823,1.60849 6.76258,2.85297 4.57881,1.66718 7.66659,3.34609 9.26334,5.03672 1.62017,1.69066 2.43027,3.81571 2.4303,6.37514"
       style="font-weight:normal;text-align:end;text-anchor:end;font-family:Open Sans;-inkscape-font-specification:Open Sans"
       id="path4446" />
    <path
       d="m 492.63051,-196.38906 -6.41037,-16.37814 -20.63998,0 -6.33993,16.37814 -6.05815,0 20.35821,-51.70561 5.03671,0 20.25254,51.70561 -6.19903,0 m -8.27713,-21.76707 -5.98771,-15.95548 c -0.7749,-2.01935 -1.57326,-4.49661 -2.39508,-7.4318 -0.51661,2.25423 -1.25627,4.7315 -2.21897,7.4318 l -6.05815,15.95548 16.65991,0"
       style="font-weight:normal;text-align:end;text-anchor:end;font-family:Open Sans;-inkscape-font-specification:Open Sans"
       id="path4448" />
    <path
       d="m 510.8754,-196.38906 -5.84682,0 0,-38.6031 5.84682,0 0,38.6031 m -6.33993,-49.06398 c 0,-1.33837 0.32874,-2.31284 0.98621,-2.92341 0.65747,-0.63394 1.47931,-0.95093 2.46553,-0.95098 0.93924,5e-5 1.74934,0.31704 2.43031,0.95098 0.68094,0.63405 1.02142,1.60852 1.02143,2.92341 -10e-6,1.315 -0.34049,2.30121 -1.02143,2.95864 -0.68097,0.63403 -1.49107,0.95103 -2.43031,0.95099 -0.98622,4e-5 -1.80806,-0.31696 -2.46553,-0.95099 -0.65747,-0.65743 -0.98621,-1.64364 -0.98621,-2.95864"
       style="font-weight:normal;text-align:end;text-anchor:end;font-family:Open Sans;-inkscape-font-specification:Open Sans"
       id="path4450" />
    <path
       d="m 540.95482,-235.69659 c 1.7141,3e-5 3.25212,0.14092 4.61406,0.42266 l -0.8101,5.42416 c -1.59675,-0.35219 -3.00562,-0.5283 -4.22662,-0.52833 -3.12302,3e-5 -5.79988,1.26802 -8.03057,3.80395 -2.20725,2.536 -3.31086,5.69422 -3.31085,9.47467 l 0,20.71042 -5.84682,0 0,-38.6031 4.82539,0 0.66921,7.15003 0.28177,0 c 1.43234,-2.51246 3.15821,-4.44965 5.17761,-5.8116 2.01936,-1.36187 4.23834,-2.04283 6.65692,-2.04286"
       style="font-weight:normal;text-align:end;text-anchor:end;font-family:Open Sans;-inkscape-font-specification:Open Sans"
       id="path4452" />
    <path
       d="m 570.75247,-195.68462 c -2.51251,0 -4.81366,-0.45788 -6.90347,-1.37365 -2.06636,-0.93925 -3.80397,-2.3716 -5.21283,-4.29706 l -0.42266,0 c 0.28176,2.2542 0.42265,4.39098 0.42266,6.41037 l 0,15.88503 -5.84682,0 0,-55.93223 4.75495,0 0.8101,5.28327 0.28177,0 c 1.50279,-2.11327 3.25213,-3.63955 5.24805,-4.57883 1.99588,-0.93921 4.2853,-1.40884 6.86825,-1.40887 5.11888,3e-5 9.06372,1.74938 11.83453,5.24804 2.79423,3.49873 4.19136,8.4063 4.1914,14.72272 -4e-5,6.33994 -1.42066,11.27099 -4.26184,14.79316 -2.81778,3.4987 -6.73914,5.24805 -11.76409,5.24805 m -0.84532,-35.0457 c -3.94486,3e-5 -6.79782,1.09191 -8.5589,3.27563 -1.7611,2.18378 -2.66513,5.65899 -2.71208,10.42565 l 0,1.30321 c -10e-6,5.42417 0.90402,9.31031 2.71208,11.65842 1.80804,2.32464 4.70796,3.48696 8.69979,3.48696 3.3343,0 5.94071,-1.35017 7.81924,-4.05051 1.90194,-2.70033 2.85293,-6.4221 2.85297,-11.16531 -4e-5,-4.81363 -0.95103,-8.50017 -2.85297,-11.05965 -1.87853,-2.5829 -4.5319,-3.87437 -7.96013,-3.8744"
       style="font-weight:normal;text-align:end;text-anchor:end;font-family:Open Sans;-inkscape-font-specification:Open Sans"
       id="path4454" />
    <path
       d="m 630.34777,-215.72583 c -4e-5,6.29298 -1.58502,11.21228 -4.75495,14.75794 -3.16999,3.52218 -7.54923,5.28327 -13.13773,5.28327 -3.45175,0 -6.51605,-0.8101 -9.19289,-2.43031 -2.67687,-1.6202 -4.74321,-3.94483 -6.19904,-6.97391 -1.45584,-3.02907 -2.18376,-6.57473 -2.18375,-10.63699 -10e-6,-6.29294 1.57323,-11.18876 4.71972,-14.68749 3.14647,-3.52215 7.51397,-5.28324 13.10251,-5.28327 5.40065,3e-5 9.68597,1.79635 12.85596,5.38893 3.19341,3.59266 4.79013,8.45326 4.79017,14.58183 m -29.41021,0 c -10e-6,4.93107 0.9862,8.68806 2.95863,11.27098 1.97241,2.58294 4.87233,3.8744 8.69979,3.8744 3.82741,0 6.72733,-1.27972 8.69978,-3.83918 1.99587,-2.58292 2.99382,-6.35165 2.99386,-11.3062 -4e-5,-4.90755 -0.99799,-8.62931 -2.99386,-11.16531 -1.97245,-2.55942 -4.89585,-3.83915 -8.77023,-3.83918 -3.82745,3e-5 -6.71564,1.25628 -8.66456,3.76873 -1.94895,2.51252 -2.92342,6.25777 -2.92341,11.23576"
       style="font-weight:normal;text-align:end;text-anchor:end;font-family:Open Sans;-inkscape-font-specification:Open Sans"
       id="path4456" />
    <path
       d="m 658.17299,-235.69659 c 1.7141,3e-5 3.25212,0.14092 4.61406,0.42266 l -0.8101,5.42416 c -1.59675,-0.35219 -3.00562,-0.5283 -4.22662,-0.52833 -3.12302,3e-5 -5.79988,1.26802 -8.03057,3.80395 -2.20725,2.536 -3.31086,5.69422 -3.31085,9.47467 l 0,20.71042 -5.84682,0 0,-38.6031 4.82539,0 0.66921,7.15003 0.28177,0 c 1.43234,-2.51246 3.15821,-4.44965 5.17761,-5.8116 2.01936,-1.36187 4.23834,-2.04283 6.65692,-2.04286"
       style="font-weight:normal;text-align:end;text-anchor:end;font-family:Open Sans;-inkscape-font-specification:Open Sans"
       id="path4458" />
    <path
       d="m 682.47604,-200.51001 c 1.03316,1e-5 2.03111,-0.0704 2.99386,-0.21133 0.9627,-0.16436 1.72584,-0.32873 2.28941,-0.4931 l 0,4.47316 c -0.63401,0.30526 -1.57326,0.55181 -2.81774,0.73966 -1.22104,0.21133 -2.32466,0.317 -3.31085,0.317 -7.46703,0 -11.20054,-3.9331 -11.20054,-11.79931 l 0,-22.96462 -5.52982,0 0,-2.81774 5.52982,-2.4303 2.46553,-8.24191 3.38129,0 0,8.94634 11.20054,0 0,4.54361 -11.20054,0 0,22.71807 c -1e-5,2.32465 0.5518,4.10922 1.65543,5.35372 1.1036,1.2445 2.61814,1.86676 4.54361,1.86675"
       style="font-weight:normal;text-align:end;text-anchor:end;font-family:Open Sans;-inkscape-font-specification:Open Sans"
       id="path4460" />
    <path
       d="m 710.93526,-216.14849 c 0,-6.22249 0.90402,-12.04583 2.71208,-17.47002 1.83152,-5.42411 4.46142,-10.17905 7.88968,-14.26483 l 5.70594,0 c -3.38131,4.53192 -5.92902,9.50993 -7.64314,14.93405 -1.69065,5.42419 -2.53598,11.00097 -2.53597,16.73036 -10e-6,5.6355 0.8688,11.14184 2.60642,16.51902 1.73759,5.3772 4.23834,10.28476 7.50224,14.72272 l -5.63549,0 c -3.45174,-3.99181 -6.08164,-8.65283 -7.88968,-13.98306 -1.80806,-5.33022 -2.71208,-11.05963 -2.71208,-17.18824"
       style="font-weight:normal;text-align:end;text-anchor:end;font-family:Open Sans;-inkscape-font-specification:Open Sans"
       id="path4462" />
    <path
       d="m 752.39132,-196.38906 -5.9877,0 0,-46.17579 -16.3077,0 0,-5.31849 38.6031,0 0,5.31849 -16.3077,0 0,46.17579"
       style="font-weight:normal;text-align:end;text-anchor:end;font-family:Open Sans;-inkscape-font-specification:Open Sans"
       id="path4464" />
    <path
       d="m 782.40031,-196.38906 -5.98771,0 0,-51.49428 28.70578,0 0,5.31849 -22.71807,0 0,18.84367 21.34442,0 0,5.31849 -21.34442,0 0,22.01363"
       style="font-weight:normal;text-align:end;text-anchor:end;font-family:Open Sans;-inkscape-font-specification:Open Sans"
       id="path4466" />
    <path
       d="m 853.83015,-196.38906 -6.83303,0 -28.14222,-43.21716 -0.28178,0 c 0.37569,5.07198 0.56354,9.72126 0.56355,13.94784 l 0,29.26932 -5.52982,0 0,-51.49428 6.76259,0 28.07178,43.04105 0.28177,0 c -0.047,-0.63398 -0.15267,-2.66511 -0.317,-6.09337 -0.16441,-3.45172 -0.22311,-5.91725 -0.1761,-7.39658 l 0,-29.5511 5.60026,0 0,51.49428"
       style="font-weight:normal;text-align:end;text-anchor:end;font-family:Open Sans;-inkscape-font-specification:Open Sans"
       id="path4468" />
    <path
       d="m 879.36594,-216.14849 c -2e-5,6.17557 -0.91579,11.92846 -2.7473,17.25868 -1.80807,5.33024 -4.42622,9.96777 -7.85447,13.91262 l -5.63549,0 c 3.26389,-4.41448 5.76463,-9.3103 7.50225,-14.6875 1.7376,-5.40066 2.6064,-10.91874 2.60641,-16.55424 -10e-6,-5.72939 -0.85707,-11.30617 -2.57119,-16.73036 -1.69065,-5.42412 -4.22662,-10.40213 -7.60791,-14.93405 l 5.70593,0 c 3.45173,4.10926 6.08162,8.88768 7.88969,14.33528 1.80803,5.42419 2.71206,11.22404 2.71208,17.39957"
       style="font-weight:normal;text-align:end;text-anchor:end;font-family:Open Sans;-inkscape-font-specification:Open Sans"
       id="path4470" />
  </g>
  <path
     transform="matrix(4.4692496,0,0,4.4692496,421.27128,338.2007)"
     style="color:#000000;fill:none;stroke:#d45500;stroke-width:3.19999981;stroke-linecap:butt;stroke-linejoin:bevel;stroke-miterlimit:4;stroke-dashoffset:0;stroke-opacity:1;marker:none;visibility:visible;display:inline;overflow:visible;enable-background:accumulate"
     d="m 98.94068,169.70338 c 0,2.10618 -1.707388,3.81356 -3.813559,3.81356 -2.106171,0 -3.813559,-1.70738 -3.813559,-3.81356 0,-2.10617 1.707388,-3.81355 3.813559,-3.81355 2.106171,0 3.813559,1.70738 3.813559,3.81355 z"
     id="path4172" />
  <path
     style="fill:none;stroke:#d45500;stroke-width:10.2154274;stroke-linecap:butt;stroke-linejoin:miter;stroke-miterlimit:4;stroke-opacity:1;stroke-dasharray:10.21542725, 10.21542725;stroke-dashoffset:0"
     d="m 865.62612,1102.8698 179.63568,45.45"
     id="path4178"
     inkscape:connector-curvature="0"
     sodipodi:nodetypes="cc"
     inkscape:export-filename="/home/icoloma/code/wedding/img/tenerife.png"
     inkscape:export-xdpi="236.02"
     inkscape:export-ydpi="236.02" />
  <path
     transform="matrix(4.4692496,0,0,4.4692496,659.07209,-681.44827)"
     style="color:#000000;fill:none;stroke:#0864c7;stroke-width:3.19999981;stroke-linecap:butt;stroke-linejoin:bevel;stroke-miterlimit:4;stroke-dashoffset:0;stroke-opacity:1;marker:none;visibility:visible;display:inline;overflow:visible;enable-background:accumulate"
     d="m 98.94068,169.70338 c 0,2.10618 -1.707388,3.81356 -3.813559,3.81356 -2.106171,0 -3.813559,-1.70738 -3.813559,-3.81356 0,-2.10617 1.707388,-3.81355 3.813559,-3.81355 2.106171,0 3.813559,1.70738 3.813559,3.81355 z"
     id="path4172-6-8" />
  <path
     style="fill:none;stroke:#0864c7;stroke-width:10.2154274;stroke-linecap:butt;stroke-linejoin:miter;stroke-miterlimit:4;stroke-opacity:1;stroke-dasharray:10.21542733, 10.21542733;stroke-dashoffset:0"
     d="M 1066.4728,72.346753 869.3045,1.0306732"
     id="path4178-9-9"
     inkscape:connector-curvature="0"
     sodipodi:nodetypes="cc"
     inkscape:export-filename="/home/icoloma/code/wedding/img/tenerife.png"
     inkscape:export-xdpi="236.02"
     inkscape:export-ydpi="236.02" />
  <path
     style="fill:#0864c7;fill-opacity:1"
     d="m 689.57984,21.492273 c 0.12531,-36.66655 -0.0457,-34.19091 2.78378,-40.29911 3.63151,-7.83947 9.83972,-13.41789 18.0324,-16.20311 l 2.2783,-0.77453 -2.2783,-1.19551 c -4.68579,-2.45886 -8.70107,-7.53694 -10.09186,-12.76307 -0.66826,-2.51109 -0.6654,-7.44926 0.005,-10.02616 2.75892,-10.59223 13.74084,-17.15023 24.26349,-14.48928 9.20918,2.32881 15.32508,10.06716 15.34426,19.41483 0.008,3.73045 -0.57864,6.20704 -2.25668,9.53272 -1.46266,2.89879 -5.44884,6.84939 -8.42769,8.35249 l -2.29897,1.16003 2.29897,0.78152 c 9.8677,3.35437 16.80752,10.62029 19.93792,20.87476 0.75929,2.48732 0.78409,3.15029 0.97141,25.96573 l 0.1923,23.41324 7.06141,-12.59288 c 3.88376,-6.92607 7.13287,-12.7237398 7.22024,-12.8836898 0.0875,-0.15998 -0.32159,-1.19765 -0.90876,-2.30599 -0.58718,-1.10833 -1.51935,-3.45194 -2.07151,-5.20802 -0.92786,-2.95105998 -1.0022,-3.60943 -0.98132,-8.69178 0.0184,-4.4509102 0.15919,-5.9504302 0.73893,-7.8682602 l 0.71637,-2.3694 -2.34003,-1.61604 c -1.28702,-0.8888 -2.94439,-2.13744 -3.68306,-2.77471 l -1.34302,-1.15867 7.88601,-14.19064 7.88599,-14.19062 0.0436,-3.72505 c 0.0279,-2.39929 0.26617,-4.48261 0.66922,-5.85363 3.57698,-12.16817 17.10948,-18.11146 28.51825,-12.52486 3.25658,1.59467 7.38059,5.67941 8.88441,8.79982 1.64445,3.41221 2.22849,6.07551 2.14028,9.75969 l -0.0767,3.19653 7.86846,14.21395 c 4.32768,7.81768 7.86169,14.36148 7.85336,14.54176 -0.0158,0.35553 -2.64213,2.4713 -5.37166,4.32837 -0.93968,0.63932 -1.70854,1.21244 -1.70854,1.27362 0,0.0612 0.33481,1.37397 0.74398,2.91738 0.57341,2.16282 0.744,3.8635802 0.744,7.4181302 0,5.40087002 -0.7036,8.62198 -2.85047,13.04956 l -1.35419,2.79284 7.59652,13.5421398 c 4.17808,7.44816 9.49883,16.92576 11.82391,21.06131 3.19739,5.68705 4.22744,7.82651 4.22744,8.78046 l 0,1.26128 -75.39999,0 -75.40002,0 0.11191,-32.72715 z m 144.86306,28.23898 c -0.12373,-0.32217 -2.11256,-3.9541 -4.41986,-8.07092 -2.30732,-4.11687 -7.34877,-13.11125 -11.20324,-19.98751 l -7.00814,-12.5023198 1.64636,-3.18767 c 2.33475,-4.5205 3.12252,-7.73609 3.17519,-12.96051 0.0531,-5.2667902 -0.56046,-7.3625702 -2.81546,-9.6175602 -3.79748,-3.79749 -10.67435,-3.4433 -19.57334,1.00814 l -3.6291,1.81535 -3.46623,-1.79394 c -9.57406,-4.95505 -16.67239,-5.12785 -20.22583,-0.4924 -1.82441,2.37994 -2.32729,4.70878 -2.1444,9.9307502 0.13345,3.81367 0.31799,4.94447 1.25423,7.68999 0.6037,1.77038 1.61261,4.08524 2.242,5.14411 0.62939,1.0589 1.14745,2.08937 1.1512,2.28996 0.008,0.35167 -3.19137,6.1289798 -16.56237,29.9209198 -3.43975,6.12057 -6.25407,11.18927 -6.25407,11.26382 0,0.0746 19.813,0.13555 44.02893,0.13555 40.7817,0 44.01232,-0.0431 43.80413,-0.58573 z m -107.57159,-60.53613 c 3.63669,-9.51955 6.61218,-17.45587 6.61218,-17.63626 0,-0.75446 -7.88885,-3.93653 -8.42646,-3.39893 -0.10744,0.10744 0.54733,0.98907 1.45489,1.95931 0.90755,0.97026 1.65009,1.91405 1.65009,2.09733 0,0.3845 -2.38193,2.5484 -2.76176,2.50894 -0.1395,-0.0158 -1.44425,-1.38868 -2.89931,-3.05372 l -2.64557,-3.02737 -1.07947,1.19765 c -0.59371,0.65871 -1.84333,2.05632 -2.77692,3.10579 l -1.69745,1.90816 -1.29543,-1.0485 c -0.7125,-0.57664 -1.34617,-1.20072 -1.40822,-1.38684 -0.062,-0.18599 0.62529,-1.1821 1.52738,-2.21336 0.9021,-1.03123 1.55098,-1.96417 1.44199,-2.07316 -0.29656,-0.29655 -4.7864,1.224 -6.73888,2.28224 -1.14598,0.62109 -1.6585,1.10763 -1.55673,1.47774 0.12242,0.44471 6.13147,16.18064 12.38219,32.4245702 0.58878,1.53012 1.19084,2.64765 1.3379,2.48336 0.14711,-0.16419 3.24286,-8.0874 6.87958,-17.6069502 z m 15.83612,1.7777602 c 0,-0.0541 -1.08175,-1.1716402 -2.40389,-2.4836402 l -2.40389,-2.38548 -2.46463,2.48367 -2.46463,2.4836702 4.86852,0 c 2.67767,0 4.86852,-0.0441 4.86852,-0.0983 z M 764.9894,-22.321297 c 3.59904,-5.73859 9.39377,-10.3321 15.75771,-12.49126 l 2.88357,-0.97833 -1.92511,-0.965 c -3.39553,-1.70207 -6.10859,-4.13925 -8.1511,-7.32221 l -1.13815,-1.77364 -6.04026,10.92265 c -3.32214,6.00745 -6.10786,11.17867 -6.19051,11.49162 -0.0988,0.374 0.42728,0.95151 1.53485,1.68514 0.92679,0.61389 1.80366,1.11616 1.94859,1.11616 0.14501,0 0.73912,-0.75832 1.32041,-1.68513 z m 54.84582,0.414 1.66472,-1.2711 -1.02243,-1.83308 c -0.56235,-1.0082 -3.38648,-6.10762 -6.27583,-11.33206 l -5.25336,-9.49896 -1.39103,2.1289 c -1.71061,2.61801 -4.62618,5.26297 -7.47547,6.78163 l -2.14984,1.14586 2.63601,0.93041 c 6.49147,2.29128 11.93658,6.5484 15.475,12.09872 0.73846,1.15835 1.51924,2.10938 1.73507,2.11343 0.21593,0.005 1.14156,-0.56461 2.05716,-1.26375 z"
     id="path4335"
     inkscape:connector-curvature="0"
     inkscape:export-filename="/home/icoloma/code/wedding/img/tenerife.png"
     inkscape:export-xdpi="236.02"
     inkscape:export-ydpi="236.02" />
  <g
     style="font-size:72.13426208px;font-style:normal;font-variant:normal;font-weight:600;font-stretch:normal;line-height:125%;letter-spacing:0px;word-spacing:0px;fill:#4d4d4d;fill-opacity:1;stroke:none;font-family:Minion LT;-inkscape-font-specification:Minion LT Semi-Bold"
     id="text4174-4-7">
    <path
       d="m 371.52575,18.458059 -5.91726,0 -10.39044,-34.482149 c -0.49314,-1.526243 -1.04495,-3.4517 -1.65542,-5.776377 -0.61055,-2.324597 -0.92754,-3.721727 -0.95099,-4.191395 -0.51662,3.09956 -1.33846,6.492591 -2.46553,10.179102 l -10.07343,34.270819 -5.91727,0 -13.70128,-51.494282 6.33992,0 8.13624,31.8052918 c 1.12708,4.4614442 1.94892,8.5002075 2.46553,12.1163022 0.63397,-4.297049 1.57322,-8.5001805 2.81774,-12.6094075 l 9.22812,-31.3121865 6.33992,0 9.686,31.593961 c 1.12705,3.639603 2.07804,7.7488098 2.85296,12.327633 0.4461,-3.3343206 1.29142,-7.396565 2.53598,-12.1867458 l 8.10101,-31.7348482 6.33993,0 -13.77173,51.494282"
       style="font-weight:normal;text-align:end;text-anchor:end;font-family:Open Sans;-inkscape-font-specification:Open Sans"
       id="path4413" />
    <path
       d="m 408.79042,19.162495 c -5.70595,0 -10.21433,-1.737608 -13.52517,-5.212827 -3.28738,-3.47521 -4.93106,-8.3005933 -4.93105,-14.47616302 -1e-5,-6.22249418 1.52627,-11.16528298 4.57883,-14.82838098 3.07603,-3.663031 7.19697,-5.494563 12.36286,-5.494602 4.8371,3.9e-5 8.66453,1.59676 11.4823,4.790166 2.81771,3.169994 4.22658,7.3613848 4.22662,12.5741851 l 0,3.69828984 -26.59246,0 c 0.11739,4.53188626 1.25623,7.97187946 3.41651,10.31999006 2.18374,2.348126 5.24803,3.522185 9.19289,3.52218 4.15615,5e-6 8.26536,-0.868799 12.32764,-2.606413 l 0,5.212827 c -2.06638,0.892287 -4.02706,1.526279 -5.88205,1.901978 -1.83156,0.39918 -4.05053,0.59877 -6.65692,0.59877 m -1.58498,-35.116142 c -3.09954,3.5e-5 -5.5768,1.009725 -7.4318,3.029076 -1.83155,2.019413 -2.91168,4.8136733 -3.24041,8.3827899 l 20.1821,0 c -3e-5,-3.6865225 -0.82187,-6.5042639 -2.46553,-8.4532339 -1.64371,-1.972388 -3.99183,-2.958597 -7.04436,-2.958632"
       style="font-weight:normal;text-align:end;text-anchor:end;font-family:Open Sans;-inkscape-font-specification:Open Sans"
       id="path4415" />
    <path
       d="m 459.19283,13.280454 -0.317,0 c -2.70037,3.921362 -6.73913,5.882041 -12.1163,5.882041 -5.04848,0 -8.98157,-1.725867 -11.79931,-5.177605 -2.79427,-3.451729 -4.1914,-8.3592964 -4.19139,-14.72271586 -10e-6,-6.36338104 1.40886,-11.30617014 4.22661,-14.82838114 2.81774,-3.522143 6.73909,-5.283232 11.76409,-5.283271 5.23628,3.9e-5 9.25156,1.902015 12.04586,5.705933 l 0.45788,0 -0.24655,-2.782523 -0.14089,-2.712079 0,-15.708926 5.84682,0 0,54.805132 -4.75494,0 -0.77488,-5.177605 m -11.69364,0.98621 c 3.99178,4e-6 6.87996,-1.08013 8.66456,-3.240406 1.80802,-2.1837426 2.71205,-5.6941792 2.71208,-10.5313206 l 0,-1.23276326 c -3e-5,-5.47109614 -0.9158,-9.36897214 -2.7473,-11.69364014 -1.80808,-2.348087 -4.70801,-3.522146 -8.69979,-3.522181 -3.42827,3.5e-5 -6.05816,1.338462 -7.88968,4.015286 -1.80807,2.6534042 -2.71209,6.4103933 -2.71208,11.27097875 -10e-6,4.93106725 0.90401,8.65283455 2.71208,11.16531325 1.80804,2.512494 4.46141,3.768737 7.96013,3.768733"
       style="font-weight:normal;text-align:end;text-anchor:end;font-family:Open Sans;-inkscape-font-specification:Open Sans"
       id="path4417" />
    <path
       d="m 503.43141,13.280454 -0.31699,0 c -2.70037,3.921362 -6.73914,5.882041 -12.11631,5.882041 -5.04847,0 -8.98157,-1.725867 -11.7993,-5.177605 -2.79427,-3.451729 -4.1914,-8.3592964 -4.1914,-14.72271586 0,-6.36338104 1.40887,-11.30617014 4.22662,-14.82838114 2.81773,-3.522143 6.73909,-5.283232 11.76408,-5.283271 5.23629,3.9e-5 9.25157,1.902015 12.04586,5.705933 l 0.45789,0 -0.24656,-2.782523 -0.14088,-2.712079 0,-15.708926 5.84682,0 0,54.805132 -4.75495,0 -0.77488,-5.177605 m -11.69364,0.98621 c 3.99178,4e-6 6.87997,-1.08013 8.66457,-3.240406 1.80802,-2.1837426 2.71204,-5.6941792 2.71208,-10.5313206 l 0,-1.23276326 c -4e-5,-5.47109614 -0.9158,-9.36897214 -2.74731,-11.69364014 -1.80808,-2.348087 -4.708,-3.522146 -8.69978,-3.522181 -3.42827,3.5e-5 -6.05817,1.338462 -7.88969,4.015286 -1.80806,2.6534042 -2.71209,6.4103933 -2.71208,11.27097875 -1e-5,4.93106725 0.90402,8.65283455 2.71208,11.16531325 1.80804,2.512494 4.46142,3.768737 7.96013,3.768733"
       style="font-weight:normal;text-align:end;text-anchor:end;font-family:Open Sans;-inkscape-font-specification:Open Sans"
       id="path4419" />
    <path
       d="m 527.24137,18.458059 -5.84682,0 0,-38.603101 5.84682,0 0,38.603101 m -6.33993,-49.063978 c -10e-6,-1.338378 0.32873,-2.312847 0.98621,-2.92341 0.65747,-0.63394 1.47931,-0.950936 2.46553,-0.950989 0.93924,5.3e-5 1.74934,0.317049 2.4303,0.950989 0.68094,0.634044 1.02142,1.608513 1.02143,2.92341 -10e-6,1.314995 -0.34049,2.301205 -1.02143,2.958632 -0.68096,0.634038 -1.49106,0.951034 -2.4303,0.950989 -0.98622,4.5e-5 -1.80806,-0.316951 -2.46553,-0.950989 -0.65748,-0.657427 -0.98622,-1.643637 -0.98621,-2.958632"
       style="font-weight:normal;text-align:end;text-anchor:end;font-family:Open Sans;-inkscape-font-specification:Open Sans"
       id="path4421" />
    <path
       d="m 566.12624,18.458059 0,-24.9722613 c -3e-5,-3.1464534 -0.71621,-5.4945717 -2.14853,-7.0443617 -1.43238,-1.549726 -3.67484,-2.324605 -6.72737,-2.324639 -4.03878,3.4e-5 -6.99741,1.091909 -8.87589,3.275628 -1.87851,2.183781 -2.81776,5.7881423 -2.81775,10.8130949 l 0,20.2525391 -5.84682,0 0,-38.603101 4.75495,0 0.95099,5.283271 0.28177,0 c 1.19753,-1.901942 2.87643,-3.369516 5.03672,-4.402726 2.16025,-1.056615 4.56707,-1.584942 7.22047,-1.584981 4.64925,3.9e-5 8.14795,1.127136 10.4961,3.381293 2.34808,2.230749 3.52214,5.811629 3.52218,10.7426518 l 0,25.1835922 -5.84682,0"
       style="font-weight:normal;text-align:end;text-anchor:end;font-family:Open Sans;-inkscape-font-specification:Open Sans"
       id="path4423" />
    <path
       d="m 615.54245,-20.145042 0,3.69829 -7.15003,0.845323 c 0.65744,0.821876 1.24447,1.90201 1.76109,3.240407 0.51655,1.314977 0.77485,2.8060316 0.77488,4.4731692 -3e-5,3.7804966 -1.2915,6.7978284 -3.8744,9.0520046 -2.58296,2.2542107 -6.12862,3.3813074 -10.63699,3.3812935 -1.15059,1.39e-5 -2.23073,-0.093911 -3.2404,-0.2817745 -2.48902,1.3149604 -3.73352,2.9703837 -3.73351,4.9662749 -10e-6,1.0566623 0.43439,1.8432823 1.3032,2.3598613 0.86879,0.493111 2.35985,0.739664 4.47317,0.739658 l 6.83303,0 c 4.17963,6e-6 7.38481,0.88055 9.61556,2.641635 2.25416,1.761092 3.38125,4.320541 3.38129,7.678354 -4e-5,4.273571 -1.71416,7.525715 -5.14238,9.756441 -3.42829,2.25418 -8.42978,3.381276 -15.00449,3.381294 -5.04847,-1.8e-5 -8.94635,-0.939265 -11.69364,-2.817745 -2.72383,-1.878509 -4.08573,-4.531882 -4.08573,-7.960128 0,-2.348125 0.75139,-4.379247 2.25419,-6.093373 1.5028,-1.714127 3.6161,-2.876445 6.33993,-3.486959 -0.98622,-0.44614 -1.8198,-1.138834 -2.50075,-2.078087 -0.65748,-0.939242 -0.98622,-2.031117 -0.98621,-3.275628 -1e-5,-1.4088624 0.37569,-2.6416245 1.1271,-3.6982897 0.75139,-1.0566411 1.93719,-2.0780725 3.5574,-3.0642973 -1.99591,-0.8218262 -3.62785,-2.2189565 -4.89583,-4.19139509 -1.24451,-1.97239991 -1.86676,-4.22659331 -1.86676,-6.76258711 0,-4.2265868 1.26798,-7.4787298 3.80396,-9.7564408 2.53596,-2.30112 6.12858,-3.451698 10.77787,-3.451737 2.01936,3.9e-5 3.83916,0.234851 5.45938,0.704436 l 13.34907,0 m -30.78386,45.083914 c -10e-6,2.089819 0.88053,3.674798 2.64163,4.754944 1.76108,1.080123 4.28531,1.62019 7.57269,1.620203 4.90755,-1.3e-5 8.53539,-0.73967 10.88354,-2.218974 2.37157,-1.455844 3.55737,-3.440004 3.5574,-5.952485 -3e-5,-2.08983 -0.64576,-3.545663 -1.9372,-4.367504 -1.29149,-0.798361 -3.72179,-1.197541 -7.29091,-1.197542 l -7.00914,0 c -2.65339,10e-7 -4.71973,0.633993 -6.19904,1.901978 -1.47932,1.267983 -2.21898,3.087774 -2.21897,5.45938 m 3.16996,-32.7210594 c -10e-6,2.7003621 0.76313,4.7432249 2.28942,6.1285945 1.52626,1.38540987 3.65131,2.07810472 6.37514,2.07808669 5.70591,1.803e-5 8.55888,-2.77076139 8.5589,-8.31234659 -2e-5,-5.7998252 -2.88821,-8.6997512 -8.66456,-8.6997862 -2.74732,3.5e-5 -4.86062,0.739692 -6.33993,2.218974 -1.47932,1.479347 -2.21898,3.674837 -2.21897,6.5864776"
       style="font-weight:normal;text-align:end;text-anchor:end;font-family:Open Sans;-inkscape-font-specification:Open Sans"
       id="path4425" />
  </g>
</svg>
